<?xml version="1.0" encoding="UTF-8" standalone="no"?>
<svg
   xmlns:dc="http://purl.org/dc/elements/1.1/"
   xmlns:cc="http://creativecommons.org/ns#"
   xmlns:rdf="http://www.w3.org/1999/02/22-rdf-syntax-ns#"
   xmlns:svg="http://www.w3.org/2000/svg"
   xmlns="http://www.w3.org/2000/svg"
   xmlns:sodipodi="http://sodipodi.sourceforge.net/DTD/sodipodi-0.dtd"
   xmlns:inkscape="http://www.inkscape.org/namespaces/inkscape"
   inkscape:version="1.0 (4035a4fb49, 2020-05-01)"
   height="500"
   width="500"
   sodipodi:docname="birthday-cake.svg"
   xml:space="preserve"
   viewBox="0 0 500 500"
   y="0px"
   x="0px"
   id="Icons"
   version="1.1"><metadata
   id="metadata35"><rdf:RDF><cc:Work
       rdf:about=""><dc:format>image/svg+xml</dc:format><dc:type
         rdf:resource="http://purl.org/dc/dcmitype/StillImage" /><dc:title></dc:title></cc:Work></rdf:RDF></metadata><defs
   id="defs33" /><sodipodi:namedview
   inkscape:current-layer="Icons"
   inkscape:window-maximized="1"
   inkscape:window-y="0"
   inkscape:window-x="0"
   inkscape:cy="495.75805"
   inkscape:cx="-120.10694"
   inkscape:zoom="0.5511898"
   showgrid="false"
   id="namedview31"
   inkscape:window-height="1016"
   inkscape:window-width="1920"
   inkscape:pageshadow="2"
   inkscape:pageopacity="0"
   guidetolerance="10"
   gridtolerance="10"
   objecttolerance="10"
   borderopacity="1"
   bordercolor="#666666"
   pagecolor="#ffffff" />
<style
   id="style2"
   type="text/css">
	.st0{opacity:0.15;fill:#45413C;}
	.st1{fill:#FFE500;}
	.st2{fill:#EBCB00;}
	.st3{fill:none;stroke:#45413C;stroke-linecap:round;stroke-linejoin:round;stroke-miterlimit:10;}
	.st4{fill:#FFAA54;}
	.st5{fill:#FF8A14;}
	.st6{fill:#FFB0CA;stroke:#45413C;stroke-linecap:round;stroke-linejoin:round;stroke-miterlimit:10;}
	.st7{fill:#FF87AF;stroke:#45413C;stroke-linecap:round;stroke-linejoin:round;stroke-miterlimit:10;}
	.st8{fill:#FFCC99;}
	.st9{fill:#FFFFFF;}
	.st10{fill:#F0F0F0;}
	.st11{fill:#BF8256;}
	.st12{fill:#915E3A;}
	.st13{fill:#DEA47A;}
	.st14{fill:#F0D5A8;}
	.st15{fill:#DEBB7E;}
	.st16{fill:#F7E5C6;}
	.st17{fill:#FF8A14;stroke:#45413C;stroke-linecap:round;stroke-linejoin:round;stroke-miterlimit:10;}
	.st18{fill:#FFF5E3;}
	.st19{fill:#FFF48C;}
	.st20{fill:#FFFACF;}
	.st21{fill:#FFFCE5;}
	.st22{fill:#FF87AF;}
	.st23{fill:#FFB0CA;}
	.st24{fill:#FFE500;stroke:#45413C;stroke-linecap:round;stroke-linejoin:round;stroke-miterlimit:10;}
	.st25{fill:#9CEB60;stroke:#45413C;stroke-linecap:round;stroke-linejoin:round;stroke-miterlimit:10;}
	.st26{fill:#FFFACF;stroke:#45413C;stroke-linecap:round;stroke-linejoin:round;stroke-miterlimit:10;}
	.st27{fill:#00F5BC;stroke:#45413C;stroke-linecap:round;stroke-linejoin:round;stroke-miterlimit:10;}
	.st28{fill:#BF8256;stroke:#45413C;stroke-linecap:round;stroke-linejoin:round;stroke-miterlimit:10;}
	.st29{fill:#FFE3CF;stroke:#45413C;stroke-linecap:round;stroke-linejoin:round;stroke-miterlimit:10;}
	.st30{fill:#FF6242;}
	.st31{fill:#FF866E;}
	.st32{fill:none;stroke:#E04122;stroke-linecap:round;stroke-linejoin:round;stroke-miterlimit:10;}
	.st33{fill:#FFFEF2;stroke:#45413C;stroke-linecap:round;stroke-linejoin:round;stroke-miterlimit:10;}
	.st34{fill:#FF6242;stroke:#45413C;stroke-linecap:round;stroke-linejoin:round;stroke-miterlimit:10;}
	.st35{fill:#FFA694;}
	.st36{fill:#FFFFFF;stroke:#45413C;stroke-linecap:round;stroke-linejoin:round;stroke-miterlimit:10;}
	.st37{fill:#FFFEF2;}
	.st38{fill:#FF6196;}
	.st39{fill:#B89558;}
	.st40{fill:none;stroke:#915E3A;stroke-linecap:round;stroke-linejoin:round;stroke-miterlimit:10;}
	.st41{fill:#DEBB7E;stroke:#45413C;stroke-linecap:round;stroke-linejoin:round;stroke-miterlimit:10;}
	.st42{fill:#6DD627;stroke:#45413C;stroke-linecap:round;stroke-linejoin:round;stroke-miterlimit:10;}
	.st43{fill:#E5F8FF;}
	.st44{fill:#E8F4FA;}
	.st45{fill:#E8F4FA;stroke:#45413C;stroke-linecap:round;stroke-linejoin:round;stroke-miterlimit:10;}
	.st46{fill:#FFCCDD;}
	.st47{fill:#E5F8FF;stroke:#45413C;stroke-linecap:round;stroke-linejoin:round;stroke-miterlimit:10;}
	.st48{fill:#00B8F0;stroke:#45413C;stroke-linecap:round;stroke-linejoin:round;stroke-miterlimit:10;}
	.st49{fill:#00B8F0;}
	.st50{fill:#4ACFFF;}
	.st51{fill:#E04122;}
	.st52{fill:#E04122;stroke:#45413C;stroke-linecap:round;stroke-linejoin:round;stroke-miterlimit:10;}
	.st53{fill:#87898C;}
	.st54{fill:#BDBEC0;}
	.st55{fill:#656769;}
	.st56{fill:#525252;}
	.st57{fill:#FFF48C;stroke:#45413C;stroke-linecap:round;stroke-linejoin:round;stroke-miterlimit:10;}
	.st58{fill:#6DD627;}
	.st59{fill:#EB6D00;}
	.st60{fill:#46B000;}
	.st61{fill:#80DDFF;}
	.st62{fill:#DAEDF7;}
	.st63{fill:#BF8DF2;stroke:#45413C;stroke-linecap:round;stroke-linejoin:round;stroke-miterlimit:10;}
	.st64{fill:#9F5AE5;stroke:#45413C;stroke-linecap:round;stroke-linejoin:round;stroke-miterlimit:10;}
	.st65{fill:#C8FFA1;}
	.st66{fill:#E4FFD1;}
	.st67{fill:#9CEB60;}
	.st68{fill:#E5FEFF;}
	.st69{fill:#B8ECFF;}
	.st70{fill:#E0E0E0;stroke:#45413C;stroke-linecap:round;stroke-linejoin:round;stroke-miterlimit:10;}
	.st71{fill:#E0E0E0;}
	.st72{fill:none;stroke:#4F4B45;stroke-linejoin:round;stroke-miterlimit:10;}
	.st73{fill:none;stroke:#4F4B45;stroke-linecap:round;stroke-linejoin:round;stroke-miterlimit:10;}
	.st74{fill:#E0366F;stroke:#45413C;stroke-linecap:round;stroke-linejoin:round;stroke-miterlimit:10;}
	.st75{fill:none;stroke:#45413C;stroke-miterlimit:10;}
	.st76{fill:#FF866E;stroke:#45413C;stroke-linecap:round;stroke-linejoin:round;stroke-miterlimit:10;}
	.st77{fill:#45413C;stroke:#45413C;stroke-linecap:round;stroke-linejoin:round;stroke-miterlimit:10;}
	.st78{fill:#9F5AE5;}
	.st79{fill:#803EC2;}
	.st80{fill:#803EC2;stroke:#45413C;stroke-linecap:round;stroke-linejoin:round;stroke-miterlimit:10;}
	.st81{fill:#BF8DF2;}
	.st82{fill:#FFAA54;stroke:#45413C;stroke-linecap:round;stroke-linejoin:round;stroke-miterlimit:10;}
	.st83{fill:none;stroke:#45413C;stroke-linejoin:round;stroke-miterlimit:10;}
	.st84{fill:#FFCCDD;stroke:#45413C;stroke-linecap:round;stroke-linejoin:round;stroke-miterlimit:10;}
	.st85{fill:#FF6196;stroke:#45413C;stroke-linecap:round;stroke-linejoin:round;stroke-miterlimit:10;}
	.st86{fill:#FFE5EE;}
	.st87{fill:#F7E5C6;stroke:#45413C;stroke-linecap:round;stroke-linejoin:round;stroke-miterlimit:10;}
	.st88{fill:#E5FFF9;}
	.st89{fill:none;stroke:#45413C;stroke-width:1.0064;stroke-linecap:round;stroke-linejoin:round;stroke-miterlimit:10;}
	.st90{fill:#4AEFF7;}
	.st91{fill:#A6FBFF;}
	.st92{fill:#E5FEFF;stroke:#45413C;stroke-linecap:round;stroke-linejoin:round;stroke-miterlimit:10;}
	.st93{fill:#46B000;stroke:#45413C;stroke-linecap:round;stroke-linejoin:round;stroke-miterlimit:10;}
	.st94{fill:#FFFFFF;stroke:#45413C;stroke-linejoin:round;stroke-miterlimit:10;}
	.st95{fill:#FFFFFF;stroke:#45413C;stroke-miterlimit:10;}
	.st96{fill:#009FD9;}
	.st97{fill:#00DFEB;}
	.st98{fill:#C0DCEB;stroke:#45413C;stroke-linecap:round;stroke-linejoin:round;stroke-miterlimit:10;}
	.st99{fill:#00DFEB;stroke:#45413C;stroke-linecap:round;stroke-linejoin:round;stroke-miterlimit:10;}
	.st100{fill:#FFE5EE;stroke:#45413C;stroke-linecap:round;stroke-linejoin:round;stroke-miterlimit:10;}
	.st101{fill:#8CA4B8;}
	.st102{fill:#ADC4D9;}
	.st103{fill:#656769;stroke:#45413C;stroke-linecap:round;stroke-linejoin:round;stroke-miterlimit:10;}
	.st104{fill:#F0F0F0;stroke:#45413C;stroke-linecap:round;stroke-linejoin:round;stroke-miterlimit:10;}
	.st105{fill:#C0DCEB;}
	.st106{fill:#45413C;}
	.st107{fill:#FFCABF;}
	.st108{fill:#87898C;stroke:#45413C;stroke-linecap:round;stroke-linejoin:round;stroke-miterlimit:10;}
	.st109{fill:#EBCB00;stroke:#45413C;stroke-linecap:round;stroke-linejoin:round;stroke-miterlimit:10;}
</style>
<g
   transform="matrix(11.013237,0,0,11.013237,-14.317685,-16.021553)"
   id="XMLID_13547_">
	<ellipse
   ry="1.5"
   rx="17.5"
   cy="45.5"
   cx="24"
   class="st0"
   id="XMLID_13572_" />
	<g
   id="XMLID_13548_">
		<path
   d="m 6.5,24 c 0,3.6 7.8,6.5 17.5,6.5 9.7,0 17.5,-2.9 17.5,-6.5 v 15 c 0,3.6 -7.8,6.5 -17.5,6.5 C 14.3,45.5 6.5,42.6 6.5,39 Z"
   class="st28"
   id="XMLID_13571_" />
		<path
   d="m 6.5,30 c 0,3.6 7.8,6.5 17.5,6.5 9.7,0 17.5,-2.9 17.5,-6.5 v 5 c 0,3.6 -7.8,6.5 -17.5,6.5 C 14.3,41.5 6.5,38.6 6.5,35 Z"
   class="st29"
   id="XMLID_13570_" />
		<g
   id="XMLID_13564_">
			<path
   d="m 30.5,33.5 c 0,-0.3 0.2,-0.5 0.5,-0.5 0.3,0 0.5,0.2 0.5,0.5 0,1.4 1.1,2.5 2.5,2.5 1.4,0 2.5,-1.1 2.5,-2.5 v -2 c 0,-0.8 0.7,-1.5 1.5,-1.5 0.8,0 1.5,0.7 1.5,1.5 0,0.8 0.7,1.5 1.5,1.5 0.8,0 1.5,-0.7 1.5,-1.5 V 24 C 42.5,20.4 34.2,17.5 24,17.5 13.8,17.5 5.5,20.4 5.5,24 v 8 c 0,0.8 0.7,1.5 1.5,1.5 0.8,0 1.5,-0.7 1.5,-1.5 0,-0.8 0.7,-1.5 1.5,-1.5 0.8,0 1.5,0.7 1.5,1.5 v 3 c 0,1.4 1.1,2.5 2.5,2.5 1.4,0 2.5,-1.1 2.5,-2.5 0,-0.8 0.7,-1.5 1.5,-1.5 0.8,0 1.5,0.7 1.5,1.5 v 1 c 0,0.8 0.7,1.5 1.5,1.5 0.8,0 1.5,-0.7 1.5,-1.5 v -0.5 c 0,-1.4 1.1,-2.5 2.5,-2.5 1.4,0 2.5,1.1 2.5,2.5 V 37 c 0,0.8 0.7,1.5 1.5,1.5 0.8,0 1.5,-0.7 1.5,-1.5 z"
   class="st30"
   id="XMLID_13569_" />
			<g
   id="XMLID_13567_">
				<path
   d="m 24,20 c 7.4,0 14,1 18.1,2.6 C 40.3,19.7 32.9,17.5 24,17.5 15.1,17.5 7.7,19.7 5.9,22.6 10,21 16.6,20 24,20 Z"
   class="st31"
   id="XMLID_13568_" />
			</g>
			<path
   d="m 30.5,33.5 c 0,-0.3 0.2,-0.5 0.5,-0.5 0.3,0 0.5,0.2 0.5,0.5 0,1.4 1.1,2.5 2.5,2.5 1.4,0 2.5,-1.1 2.5,-2.5 v -2 c 0,-0.8 0.7,-1.5 1.5,-1.5 0.8,0 1.5,0.7 1.5,1.5 0,0.8 0.7,1.5 1.5,1.5 0.8,0 1.5,-0.7 1.5,-1.5 V 24 C 42.5,20.4 34.2,17.5 24,17.5 13.8,17.5 5.5,20.4 5.5,24 v 8 c 0,0.8 0.7,1.5 1.5,1.5 0.8,0 1.5,-0.7 1.5,-1.5 0,-0.8 0.7,-1.5 1.5,-1.5 0.8,0 1.5,0.7 1.5,1.5 v 3 c 0,1.4 1.1,2.5 2.5,2.5 1.4,0 2.5,-1.1 2.5,-2.5 0,-0.8 0.7,-1.5 1.5,-1.5 0.8,0 1.5,0.7 1.5,1.5 v 1 c 0,0.8 0.7,1.5 1.5,1.5 0.8,0 1.5,-0.7 1.5,-1.5 v -0.5 c 0,-1.4 1.1,-2.5 2.5,-2.5 1.4,0 2.5,1.1 2.5,2.5 V 37 c 0,0.8 0.7,1.5 1.5,1.5 0.8,0 1.5,-0.7 1.5,-1.5 z"
   class="st3"
   id="XMLID_13566_" />
			<path
   d="m 40.5,24 c 0,2.5 -7.4,4.5 -16.5,4.5 -9.1,0 -16.5,-2 -16.5,-4.5"
   class="st32"
   id="XMLID_13565_" />
		</g>
		<g
   id="XMLID_13561_">
			<path
   d="m 19.5,25.5 v -8 c 0,-0.6 -0.4,-1 -1,-1 h -2 c -0.6,0 -1,0.4 -1,1 v 8 c 0,0 0.5,1 2,1 1.5,0 2,-1 2,-1 z"
   class="st33"
   id="XMLID_13563_" />
			<path
   d="m 15.2,11.6 c -0.3,1.3 0.5,2.6 1.8,2.9 1.3,0.3 2.6,-0.5 2.9,-1.8 0.4,-1.7 -2.2,-2 -2.2,-4.6 -1.7,1 -2.2,2.2 -2.5,3.5 z"
   class="st24"
   id="XMLID_13562_" />
		</g>
		<g
   id="XMLID_13558_">
			<path
   d="m 13.5,22.5 v -8 c 0,-0.6 -0.4,-1 -1,-1 h -2 c -0.6,0 -1,0.4 -1,1 v 8 c 0,0 0.5,1 2,1 1.5,0 2,-1 2,-1 z"
   class="st33"
   id="XMLID_13560_" />
			<path
   d="M 9.2,8.6 C 8.9,9.9 9.7,11.2 11,11.5 12.3,11.8 13.6,11 13.9,9.7 14.3,8 11.7,7.7 11.7,5.1 10,6.1 9.5,7.3 9.2,8.6 Z"
   class="st24"
   id="XMLID_13559_" />
		</g>
		<g
   id="XMLID_13555_">
			<path
   d="m 38.5,22.5 v -8 c 0,-0.6 -0.4,-1 -1,-1 h -2 c -0.6,0 -1,0.4 -1,1 v 8 c 0,0 0.5,1 2,1 1.5,0 2,-1 2,-1 z"
   class="st33"
   id="XMLID_13557_" />
			<path
   d="m 34.2,8.6 c -0.3,1.3 0.5,2.6 1.8,2.9 1.3,0.3 2.6,-0.5 2.9,-1.8 0.4,-1.7 -2.2,-2 -2.2,-4.6 -1.7,1 -2.2,2.2 -2.5,3.5 z"
   class="st24"
   id="XMLID_13556_" />
		</g>
		<g
   id="XMLID_13552_">
			<path
   d="m 32.5,25.5 v -8 c 0,-0.6 -0.4,-1 -1,-1 h -2 c -0.6,0 -1,0.4 -1,1 v 8 c 0,0 0.5,1 2,1 1.5,0 2,-1 2,-1 z"
   class="st33"
   id="XMLID_13554_" />
			<path
   d="m 28.2,11.6 c -0.3,1.3 0.5,2.6 1.8,2.9 1.3,0.3 2.6,-0.5 2.9,-1.8 0.4,-1.7 -2.2,-2 -2.2,-4.6 -1.7,1 -2.2,2.2 -2.5,3.5 z"
   class="st24"
   id="XMLID_13553_" />
		</g>
		<g
   id="XMLID_13549_">
			<path
   d="m 26,19.5 v -8 c 0,-0.6 -0.4,-1 -1,-1 h -2 c -0.6,0 -1,0.4 -1,1 v 8 c 0,0 0.5,1 2,1 1.5,0 2,-1 2,-1 z"
   class="st33"
   id="XMLID_13551_" />
			<path
   d="M 21.7,5.6 C 21.4,6.9 22.2,8.2 23.5,8.5 24.8,8.8 26.1,8 26.4,6.7 26.8,5 24.2,4.7 24.2,2.1 22.5,3.1 22,4.3 21.7,5.6 Z"
   class="st24"
   id="XMLID_13550_" />
		</g>
	</g>
</g>
</svg>
