<?xml version="1.0" standalone="no"?>
<!DOCTYPE svg PUBLIC "-//W3C//DTD SVG 20010904//EN"
 "http://www.w3.org/TR/2001/REC-SVG-20010904/DTD/svg10.dtd">
<svg version="1.0" xmlns="http://www.w3.org/2000/svg"
 width="600.000000pt" height="700.000000pt" viewBox="0 0 600.000000 700.000000"
 preserveAspectRatio="xMidYMid meet">
<metadata>
Created by potrace 1.14, written by Peter Selinger 2001-2017
</metadata>
<g transform="translate(0.000000,700.000000) scale(0.100000,-0.100000)"
fill="#cd201f" stroke="none">
<path d="M2124 6987 c102 -227 133 -376 102 -497 -33 -127 -104 -213 -311
-374 -262 -203 -361 -305 -434 -445 -69 -135 -86 -205 -86 -371 0 -149 5 -182
52 -340 94 -318 347 -576 776 -791 75 -38 137 -67 137 -64 0 3 -13 31 -29 63
-16 31 -41 95 -57 142 -24 72 -28 102 -28 200 -1 110 0 118 32 184 38 81 156
204 287 301 404 298 526 502 512 855 -11 277 -105 504 -297 713 -58 64 -217
190 -325 259 -142 90 -343 190 -331 165z"/>
<path d="M180 3831 c-69 -21 -121 -65 -156 -131 -18 -34 -19 -90 -19 -1510 l0
-1475 21 -80 c78 -292 317 -531 607 -608 l82 -22 1445 0 1445 0 82 22 c288 77
531 318 604 602 12 45 23 128 26 204 l6 127 149 0 c173 0 307 13 433 42 395
90 755 380 949 764 187 371 192 865 12 1240 -222 462 -655 773 -1146 823 -120
13 -4500 14 -4540 2z m4595 -740 c225 -73 407 -255 477 -481 20 -64 23 -95 22
-215 0 -123 -3 -149 -26 -218 -66 -196 -226 -370 -411 -445 -99 -40 -180 -52
-354 -52 l-163 0 0 721 0 721 193 -4 c163 -4 202 -8 262 -27z"/>
</g>
</svg>
