<?xml version="1.0" encoding="UTF-8" standalone="no"?>
<svg
   xmlns:dc="http://purl.org/dc/elements/1.1/"
   xmlns:cc="http://creativecommons.org/ns#"
   xmlns:rdf="http://www.w3.org/1999/02/22-rdf-syntax-ns#"
   xmlns:svg="http://www.w3.org/2000/svg"
   xmlns="http://www.w3.org/2000/svg"
   xmlns:xlink="http://www.w3.org/1999/xlink"
   width="597.33331"
   height="174.93333"
   id="svg8502"
   version="1.1">
  <defs
     id="defs8504">
    <linearGradient
       id="linearGradient4392">
      <stop
         style="stop-color:#ffffff;stop-opacity:0.09803922"
         offset="0"
         id="stop4394" />
      <stop
         style="stop-color:#ffffff;stop-opacity:0"
         offset="1"
         id="stop4396" />
    </linearGradient>
    <radialGradient
       xlink:href="#linearGradient4392"
       id="radialGradient4398"
       cx="113"
       cy="-12.889574"
       fx="113"
       fy="-12.889574"
       r="59.661892"
       gradientTransform="matrix(-4.6310551e-8,2.0917876,-2.109666,3.0393492e-8,271.47398,84.014325)"
       gradientUnits="userSpaceOnUse" />
  </defs>
  <metadata
     id="metadata8507">
    <rdf:RDF>
      <cc:Work
         rdf:about="">
        <dc:format>image/svg+xml</dc:format>
        <dc:type
           rdf:resource="http://purl.org/dc/dcmitype/StillImage" />
        <dc:title></dc:title>
        <dc:creator>
          <cc:Agent>
            <dc:title>Andrew Nayenko</dc:title>
          </cc:Agent>
        </dc:creator>
        <dc:publisher>
          <cc:Agent>
            <dc:title>https://f-droid.org</dc:title>
          </cc:Agent>
        </dc:publisher>
        <cc:license
           rdf:resource="http://creativecommons.org/licenses/by-sa/4.0/" />
        <dc:contributor>
          <cc:Agent>
            <dc:title />
          </cc:Agent>
        </dc:contributor>
      </cc:Work>
      <cc:License
         rdf:about="http://creativecommons.org/licenses/by-sa/4.0/">
        <cc:permits
           rdf:resource="http://creativecommons.org/ns#Reproduction" />
        <cc:permits
           rdf:resource="http://creativecommons.org/ns#Distribution" />
        <cc:requires
           rdf:resource="http://creativecommons.org/ns#Notice" />
        <cc:requires
           rdf:resource="http://creativecommons.org/ns#Attribution" />
        <cc:permits
           rdf:resource="http://creativecommons.org/ns#DerivativeWorks" />
        <cc:requires
           rdf:resource="http://creativecommons.org/ns#ShareAlike" />
      </cc:License>
    </rdf:RDF>
  </metadata>
  <g
     style="stroke:none;stroke-opacity:1"
     id="layer1"
     transform="translate(-354.13333,-379.05301)">
    <rect
       style="color:#000000;display:inline;overflow:visible;visibility:visible;fill:#000000;fill-opacity:1;fill-rule:nonzero;stroke:none;stroke-width:4.26666689;stroke-miterlimit:4;stroke-dasharray:none;stroke-opacity:1;marker:none;enable-background:accumulate"
       id="rect3007"
       width="597.33331"
       height="174.93333"
       x="354.13333"
       y="379.05301"
       rx="21.333334"
       ry="21.333334" />
    <g
       aria-label="GET IT ON"
       style="color:#000000;font-style:normal;font-variant:normal;font-weight:normal;font-stretch:normal;font-size:13.22153759px;line-height:100%;font-family:'DejaVu Sans';-inkscape-font-specification:'DejaVu Sans';letter-spacing:0px;word-spacing:0px;display:inline;overflow:visible;visibility:visible;fill:#ffffff;fill-opacity:1;fill-rule:nonzero;stroke:none;stroke-width:1.06666672px;stroke-opacity:1;marker:none;enable-background:accumulate"
       id="text3013">
      <path
         d="m 564.54723,425.40569 v -7.12714 H 558.682 v -2.9504 h 9.41992 v 11.39278 q -2.07949,1.47519 -4.58555,2.23945 -2.50605,0.74649 -5.3498,0.74649 -6.22071,0 -9.73985,-3.62578 -3.50137,-3.64356 -3.50137,-10.13086 0,-6.50508 3.50137,-10.13086 3.51914,-3.64356 9.73985,-3.64356 2.59492,0 4.92324,0.63984 2.34609,0.63985 4.31894,1.88399 v 3.82129 q -1.99062,-1.68848 -4.23007,-2.5416 -2.23946,-0.85313 -4.70997,-0.85313 -4.86992,0 -7.32265,2.71934 -2.43496,2.71933 -2.43496,8.10469 0,5.36757 2.43496,8.08691 2.45273,2.71934 7.32265,2.71934 1.90176,0 3.39473,-0.31993 1.49297,-0.33769 2.68379,-1.03086 z"
         style="font-style:normal;font-variant:normal;font-weight:normal;font-stretch:normal;font-size:36.40000153px;font-family:'DejaVu Sans';-inkscape-font-specification:'DejaVu Sans';stroke:none;stroke-width:1.06666672px;stroke-opacity:1"
         id="path63" />
      <path
         d="m 574.67809,402.65569 h 16.77813 v 3.02149 h -13.1879 v 7.85586 h 12.63692 v 3.02148 h -12.63692 v 9.61543 h 13.50782 v 3.02149 h -17.09805 z"
         style="font-style:normal;font-variant:normal;font-weight:normal;font-stretch:normal;font-size:36.40000153px;font-family:'DejaVu Sans';-inkscape-font-specification:'DejaVu Sans';stroke:none;stroke-width:1.06666672px;stroke-opacity:1"
         id="path65" />
      <path
         d="m 594.03337,402.65569 h 22.44785 v 3.02149 h -9.41992 v 23.51426 h -3.60801 v -23.51426 h -9.41992 z"
         style="font-style:normal;font-variant:normal;font-weight:normal;font-stretch:normal;font-size:36.40000153px;font-family:'DejaVu Sans';-inkscape-font-specification:'DejaVu Sans';stroke:none;stroke-width:1.06666672px;stroke-opacity:1"
         id="path67" />
      <path
         d="m 631.55309,402.65569 h 3.59023 v 26.53575 h -3.59023 z"
         style="font-style:normal;font-variant:normal;font-weight:normal;font-stretch:normal;font-size:36.40000153px;font-family:'DejaVu Sans';-inkscape-font-specification:'DejaVu Sans';stroke:none;stroke-width:1.06666672px;stroke-opacity:1"
         id="path69" />
      <path
         d="M 638.60915,402.65569 H 661.057 v 3.02149 h -9.41992 v 23.51426 h -3.60801 v -23.51426 h -9.41992 z"
         style="font-style:normal;font-variant:normal;font-weight:normal;font-stretch:normal;font-size:36.40000153px;font-family:'DejaVu Sans';-inkscape-font-specification:'DejaVu Sans';stroke:none;stroke-width:1.06666672px;stroke-opacity:1"
         id="path71" />
      <path
         d="m 686.89958,405.09065 q -3.91016,0 -6.22071,2.91485 -2.29277,2.91484 -2.29277,7.94473 0,5.0121 2.29277,7.92695 2.31055,2.91484 6.22071,2.91484 3.91015,0 6.18515,-2.91484 2.29278,-2.91485 2.29278,-7.92695 0,-5.02989 -2.29278,-7.94473 -2.275,-2.91485 -6.18515,-2.91485 z m 0,-2.91484 q 5.58086,0 8.92226,3.7502 3.34141,3.73242 3.34141,10.02422 0,6.27402 -3.34141,10.02421 -3.3414,3.73243 -8.92226,3.73243 -5.59864,0 -8.95782,-3.73243 -3.3414,-3.73242 -3.3414,-10.02421 0,-6.2918 3.3414,-10.02422 3.35918,-3.7502 8.95782,-3.7502 z"
         style="font-style:normal;font-variant:normal;font-weight:normal;font-stretch:normal;font-size:36.40000153px;font-family:'DejaVu Sans';-inkscape-font-specification:'DejaVu Sans';stroke:none;stroke-width:1.06666672px;stroke-opacity:1"
         id="path73" />
      <path
         d="m 704.77966,402.65569 h 4.83438 l 11.76601,22.19903 v -22.19903 h 3.4836 v 26.53575 h -4.83438 l -11.76602,-22.19903 v 22.19903 h -3.48359 z"
         style="font-style:normal;font-variant:normal;font-weight:normal;font-stretch:normal;font-size:36.40000153px;font-family:'DejaVu Sans';-inkscape-font-specification:'DejaVu Sans';stroke:none;stroke-width:1.06666672px;stroke-opacity:1"
         id="path75" />
    </g>
    <g
       aria-label="F-Droid"
       style="color:#000000;font-style:normal;font-variant:normal;font-weight:bold;font-stretch:normal;font-size:31.68940926px;line-height:100%;font-family:Rokkitt;-inkscape-font-specification:'Rokkitt Bold';text-align:start;letter-spacing:0px;word-spacing:0px;writing-mode:lr-tb;text-anchor:start;display:inline;overflow:visible;visibility:visible;fill:#ffffff;fill-opacity:1;fill-rule:nonzero;stroke:none;stroke-width:1.06666672px;stroke-opacity:1;marker:none;enable-background:accumulate"
       id="text5902">
      <path
         d="m 544.86428,513.32631 7.66927,-1.48437 v -51.70573 l -7.66927,-1.48438 v -8.70833 h 57.34635 v 19.74219 H 591.1273 l -0.64323,-8.60938 h -23.5026 v 19.84115 h 25.23437 v 11.13281 h -25.23437 v 19.79167 l 7.71875,1.48437 v 8.65886 h -29.83594 z"
         style="font-style:normal;font-variant:normal;font-weight:bold;font-stretch:normal;font-size:101.33333588px;line-height:100%;font-family:'Roboto Slab';-inkscape-font-specification:'Roboto Slab Bold';text-align:start;writing-mode:lr-tb;text-anchor:start;fill:#ffffff;fill-opacity:1;stroke:none;stroke-width:1.06666672px;stroke-opacity:1"
         id="path48" />
      <path
         d="m 639.02313,496.75079 h -27.90625 v -11.13281 h 27.90625 z"
         style="font-style:normal;font-variant:normal;font-weight:bold;font-stretch:normal;font-size:101.33333588px;line-height:100%;font-family:'Roboto Slab';-inkscape-font-specification:'Roboto Slab Bold';text-align:start;writing-mode:lr-tb;text-anchor:start;fill:#ffffff;fill-opacity:1;stroke:none;stroke-width:1.06666672px;stroke-opacity:1"
         id="path50" />
      <path
         d="m 680.1898,449.9435 q 13.21094,0 21.77084,8.46094 8.55989,8.41146 8.55989,21.62239 v 11.92448 q 0,13.26042 -8.55989,21.67188 -8.5599,8.36198 -21.77084,8.36198 h -32.40885 v -8.65886 l 7.66927,-1.48437 v -51.70573 l -7.66927,-1.48438 v -8.70833 h 7.66927 z m -10.29166,11.13281 v 49.82552 h 9.54948 q 7.76823,0 12.17187,-5.24479 4.40365,-5.24479 4.40365,-13.70573 v -12.02343 q 0,-8.36198 -4.40365,-13.60678 -4.40364,-5.24479 -12.17187,-5.24479 z"
         style="font-style:normal;font-variant:normal;font-weight:bold;font-stretch:normal;font-size:101.33333588px;line-height:100%;font-family:'Roboto Slab';-inkscape-font-specification:'Roboto Slab Bold';text-align:start;writing-mode:lr-tb;text-anchor:start;fill:#ffffff;fill-opacity:1;stroke:none;stroke-width:1.06666672px;stroke-opacity:1"
         id="path52" />
      <path
         d="m 719.08042,513.32631 6.92709,-1.48437 v -33.20052 l -7.66927,-1.48438 v -8.70833 h 21.1276 l 0.64323,7.81771 q 1.88021,-4.15625 4.84896,-6.48177 2.96875,-2.32552 6.8776,-2.32552 1.13802,0 2.375,0.19791 1.28646,0.14844 2.12761,0.39584 l -1.53386,13.16145 -5.9375,-0.14843 q -3.16666,0 -5.24479,1.23698 -2.07812,1.23697 -3.16667,3.51302 v 26.02604 l 6.92709,1.48437 v 8.65886 h -28.30209 z"
         style="font-style:normal;font-variant:normal;font-weight:bold;font-stretch:normal;font-size:101.33333588px;line-height:100%;font-family:'Roboto Slab';-inkscape-font-specification:'Roboto Slab Bold';text-align:start;writing-mode:lr-tb;text-anchor:start;fill:#ffffff;fill-opacity:1;stroke:none;stroke-width:1.06666672px;stroke-opacity:1"
         id="path54" />
      <path
         d="m 759.7523,494.72215 q 0,-11.97396 6.67969,-19.59375 6.72917,-7.66927 18.55469,-7.66927 11.875,0 18.55469,7.61979 6.72916,7.61979 6.72916,19.64323 v 1.03906 q 0,12.07292 -6.72916,19.69271 -6.67969,7.57031 -18.45573,7.57031 -11.92448,0 -18.65365,-7.57031 -6.67969,-7.61979 -6.67969,-19.69271 z m 14.44792,1.03906 q 0,7.32292 2.57292,11.77604 2.57291,4.40365 8.3125,4.40365 5.59114,0 8.16406,-4.45313 2.6224,-4.45312 2.6224,-11.72656 v -1.03906 q 0,-7.125 -2.6224,-11.62761 -2.6224,-4.5026 -8.26302,-4.5026 -5.64063,0 -8.21354,4.5026 -2.57292,4.50261 -2.57292,11.62761 z"
         style="font-style:normal;font-variant:normal;font-weight:bold;font-stretch:normal;font-size:101.33333588px;line-height:100%;font-family:'Roboto Slab';-inkscape-font-specification:'Roboto Slab Bold';text-align:start;writing-mode:lr-tb;text-anchor:start;fill:#ffffff;fill-opacity:1;stroke:none;stroke-width:1.06666672px;stroke-opacity:1"
         id="path56" />
      <path
         d="m 816.10907,513.32631 6.97656,-1.48437 v -33.20052 l -7.71875,-1.48438 v -8.70833 h 22.16667 v 43.39323 l 6.92708,1.48437 v 8.65886 h -28.35156 z m 21.42448,-57.69271 h -14.44792 v -10.83593 h 14.44792 z"
         style="font-style:normal;font-variant:normal;font-weight:bold;font-stretch:normal;font-size:101.33333588px;line-height:100%;font-family:'Roboto Slab';-inkscape-font-specification:'Roboto Slab Bold';text-align:start;writing-mode:lr-tb;text-anchor:start;fill:#ffffff;fill-opacity:1;stroke:none;stroke-width:1.06666672px;stroke-opacity:1"
         id="path58" />
      <path
         d="m 884.04397,515.45392 q -2.52344,3.71094 -5.98698,5.64062 -3.41407,1.92969 -7.81771,1.92969 -9.89583,0 -15.38802,-7.22396 -5.44271,-7.22396 -5.44271,-19.09896 v -1.03906 q 0,-12.66667 5.49219,-20.4349 5.49218,-7.76822 15.4375,-7.76822 4.00781,0 7.22396,1.78125 3.21614,1.73177 5.64062,4.94791 v -19.19791 l -7.71875,-1.48438 v -8.70833 h 7.71875 14.44792 v 67.04427 l 6.92708,1.48437 v 8.65886 h -19.44531 z m -20.1875,-18.75261 q 0,7.02605 2.32552,11.08334 2.375,4.00781 7.71875,4.00781 3.16666,0 5.49218,-1.28646 2.32553,-1.28646 3.8099,-3.71094 v -22.71093 q -1.48437,-2.57292 -3.8099,-3.95834 -2.27604,-1.43489 -5.39322,-1.43489 -5.29428,0 -7.71875,4.70052 -2.42448,4.70052 -2.42448,12.27083 z"
         style="font-style:normal;font-variant:normal;font-weight:bold;font-stretch:normal;font-size:101.33333588px;line-height:100%;font-family:'Roboto Slab';-inkscape-font-specification:'Roboto Slab Bold';text-align:start;writing-mode:lr-tb;text-anchor:start;fill:#ffffff;fill-opacity:1;stroke:none;stroke-width:1.06666672px;stroke-opacity:1"
         id="path60" />
    </g>
    <g
       style="stroke:none;stroke-opacity:1"
       id="g4400"
       transform="translate(86.399991,81.066663)">
      <g
         style="stroke:none;stroke-opacity:1"
         id="g5012"
         transform="matrix(2.6315876,0,0,2.6315749,294.23174,-2502.9062)">
        <g
           style="stroke:none;stroke-opacity:1"
           transform="matrix(-1,0,0,1,51.199764,0)"
           id="g4179">
          <path
             id="path4181"
             d="m 2.7615298,1073.9863 4.5333333,5.8667"
             style="fill:#8ab000;fill-opacity:1;fill-rule:evenodd;stroke:none;stroke-width:2.66666675;stroke-linecap:round;stroke-linejoin:miter;stroke-miterlimit:4;stroke-dasharray:none;stroke-opacity:1" />
          <path
             style="color:#000000;font-style:normal;font-variant:normal;font-weight:normal;font-stretch:normal;font-size:medium;line-height:normal;font-family:sans-serif;text-indent:0;text-align:start;text-decoration:none;text-decoration-line:none;text-decoration-style:solid;text-decoration-color:#000000;letter-spacing:normal;word-spacing:normal;text-transform:none;writing-mode:lr-tb;direction:ltr;baseline-shift:baseline;text-anchor:start;white-space:normal;clip-rule:nonzero;display:inline;overflow:visible;visibility:visible;opacity:1;isolation:auto;mix-blend-mode:normal;color-interpolation:sRGB;color-interpolation-filters:linearRGB;solid-color:#000000;solid-opacity:1;fill:#ffffff;fill-opacity:0.29803922;fill-rule:evenodd;stroke:none;stroke-width:2.66666675;stroke-linecap:round;stroke-linejoin:miter;stroke-miterlimit:4;stroke-dasharray:none;stroke-dashoffset:0;stroke-opacity:1;color-rendering:auto;image-rendering:auto;shape-rendering:auto;text-rendering:auto;enable-background:accumulate"
             d="m 2.7854166,1072.65 c -0.4836931,0.013 -0.8124773,0.2016 -1.0461292,0.4785 2.1620601,2.5695 2.5262944,2.9777 5.4778384,6.6362 1.0875017,1.4069 2.2203761,0.6798 1.1328742,-0.7272 l -4.5333333,-5.8666 c -0.2442554,-0.326 -0.6240868,-0.5099 -1.0312501,-0.5209 z"
             id="path4183" />
          <path
             style="color:#000000;font-style:normal;font-variant:normal;font-weight:normal;font-stretch:normal;font-size:medium;line-height:normal;font-family:sans-serif;text-indent:0;text-align:start;text-decoration:none;text-decoration-line:none;text-decoration-style:solid;text-decoration-color:#000000;letter-spacing:normal;word-spacing:normal;text-transform:none;writing-mode:lr-tb;direction:ltr;baseline-shift:baseline;text-anchor:start;white-space:normal;clip-rule:nonzero;display:inline;overflow:visible;visibility:visible;opacity:1;isolation:auto;mix-blend-mode:normal;color-interpolation:sRGB;color-interpolation-filters:linearRGB;solid-color:#000000;solid-opacity:1;fill:#263238;fill-opacity:0.2;fill-rule:evenodd;stroke:none;stroke-width:2.66666675;stroke-linecap:round;stroke-linejoin:miter;stroke-miterlimit:4;stroke-dasharray:none;stroke-dashoffset:0;stroke-opacity:1;color-rendering:auto;image-rendering:auto;shape-rendering:auto;text-rendering:auto;enable-background:accumulate"
             d="m 1.7302391,1073.1419 c -0.1321528,0.1577 -0.5985877,0.8582 -0.023989,1.6599 l 4.5333333,5.8667 c 1.0875018,1.4069 1.2265332,-0.6531 1.2265332,-0.6531 0,0 -3.9834149,-4.8107 -5.7358775,-6.8735 z"
             id="path4185" />
          <path
             style="color:#000000;font-style:normal;font-variant:normal;font-weight:normal;font-stretch:normal;font-size:medium;line-height:normal;font-family:sans-serif;text-indent:0;text-align:start;text-decoration:none;text-decoration-line:none;text-decoration-style:solid;text-decoration-color:#000000;letter-spacing:normal;word-spacing:normal;text-transform:none;writing-mode:lr-tb;direction:ltr;baseline-shift:baseline;text-anchor:start;white-space:normal;clip-rule:nonzero;display:inline;overflow:visible;visibility:visible;opacity:1;isolation:auto;mix-blend-mode:normal;color-interpolation:sRGB;color-interpolation-filters:linearRGB;solid-color:#000000;solid-opacity:1;fill:#8ab000;fill-opacity:1;fill-rule:evenodd;stroke:none;stroke-width:2.66666675;stroke-linecap:round;stroke-linejoin:miter;stroke-miterlimit:4;stroke-dasharray:none;stroke-dashoffset:0;stroke-opacity:1;color-rendering:auto;image-rendering:auto;shape-rendering:auto;text-rendering:auto;enable-background:accumulate"
             d="m 2.4937499,1072.9006 c -0.4673867,0 -1.0238528,0.151 -0.8791662,0.8518 0.110465,0.5351 4.9715479,6.4794 4.9715479,6.4794 1.0875018,1.4069 2.6597036,0.7214 1.5722017,-0.6853 l -4.5166666,-5.8376 c -0.2775887,-0.3093 -0.6490868,-0.7932 -1.1479168,-0.8083 z"
             id="path4187" />
        </g>
        <g
           style="stroke:none;stroke-opacity:1"
           id="g4955">
          <path
             style="fill:#8ab000;fill-opacity:1;fill-rule:evenodd;stroke:none;stroke-width:2.66666675;stroke-linecap:round;stroke-linejoin:miter;stroke-miterlimit:4;stroke-dasharray:none;stroke-opacity:1"
             d="m 2.7615298,1073.9863 4.5333333,5.8667"
             id="path4945" />
          <path
             id="path4947"
             d="m 2.7854166,1072.65 c -0.4836931,0.013 -0.8124773,0.2016 -1.0461292,0.4785 2.1620601,2.5695 2.5262944,2.9777 5.4778384,6.6362 1.0875017,1.4069 2.2203761,0.6798 1.1328742,-0.7272 l -4.5333333,-5.8666 c -0.2442554,-0.326 -0.6240868,-0.5099 -1.0312501,-0.5209 z"
             style="color:#000000;font-style:normal;font-variant:normal;font-weight:normal;font-stretch:normal;font-size:medium;line-height:normal;font-family:sans-serif;text-indent:0;text-align:start;text-decoration:none;text-decoration-line:none;text-decoration-style:solid;text-decoration-color:#000000;letter-spacing:normal;word-spacing:normal;text-transform:none;writing-mode:lr-tb;direction:ltr;baseline-shift:baseline;text-anchor:start;white-space:normal;clip-rule:nonzero;display:inline;overflow:visible;visibility:visible;opacity:1;isolation:auto;mix-blend-mode:normal;color-interpolation:sRGB;color-interpolation-filters:linearRGB;solid-color:#000000;solid-opacity:1;fill:#ffffff;fill-opacity:0.29803922;fill-rule:evenodd;stroke:none;stroke-width:2.66666675;stroke-linecap:round;stroke-linejoin:miter;stroke-miterlimit:4;stroke-dasharray:none;stroke-dashoffset:0;stroke-opacity:1;color-rendering:auto;image-rendering:auto;shape-rendering:auto;text-rendering:auto;enable-background:accumulate" />
          <path
             id="path4951"
             d="m 1.7302391,1073.1419 c -0.1321528,0.1577 -0.5985877,0.8582 -0.023989,1.6599 l 4.5333333,5.8667 c 1.0875018,1.4069 1.2265332,-0.6531 1.2265332,-0.6531 0,0 -3.9834149,-4.8107 -5.7358775,-6.8735 z"
             style="color:#000000;font-style:normal;font-variant:normal;font-weight:normal;font-stretch:normal;font-size:medium;line-height:normal;font-family:sans-serif;text-indent:0;text-align:start;text-decoration:none;text-decoration-line:none;text-decoration-style:solid;text-decoration-color:#000000;letter-spacing:normal;word-spacing:normal;text-transform:none;writing-mode:lr-tb;direction:ltr;baseline-shift:baseline;text-anchor:start;white-space:normal;clip-rule:nonzero;display:inline;overflow:visible;visibility:visible;opacity:1;isolation:auto;mix-blend-mode:normal;color-interpolation:sRGB;color-interpolation-filters:linearRGB;solid-color:#000000;solid-opacity:1;fill:#263238;fill-opacity:0.2;fill-rule:evenodd;stroke:none;stroke-width:2.66666675;stroke-linecap:round;stroke-linejoin:miter;stroke-miterlimit:4;stroke-dasharray:none;stroke-dashoffset:0;stroke-opacity:1;color-rendering:auto;image-rendering:auto;shape-rendering:auto;text-rendering:auto;enable-background:accumulate" />
          <path
             id="path4925"
             d="m 2.4937499,1072.9006 c -0.4673867,0 -1.0238528,0.151 -0.8791662,0.8518 0.110465,0.5351 4.9715479,6.4794 4.9715479,6.4794 1.0875018,1.4069 2.6597036,0.7214 1.5722017,-0.6853 l -4.5166666,-5.8376 c -0.2775887,-0.3093 -0.6490868,-0.7932 -1.1479168,-0.8083 z"
             style="color:#000000;font-style:normal;font-variant:normal;font-weight:normal;font-stretch:normal;font-size:medium;line-height:normal;font-family:sans-serif;text-indent:0;text-align:start;text-decoration:none;text-decoration-line:none;text-decoration-style:solid;text-decoration-color:#000000;letter-spacing:normal;word-spacing:normal;text-transform:none;writing-mode:lr-tb;direction:ltr;baseline-shift:baseline;text-anchor:start;white-space:normal;clip-rule:nonzero;display:inline;overflow:visible;visibility:visible;opacity:1;isolation:auto;mix-blend-mode:normal;color-interpolation:sRGB;color-interpolation-filters:linearRGB;solid-color:#000000;solid-opacity:1;fill:#8ab000;fill-opacity:1;fill-rule:evenodd;stroke:none;stroke-width:2.66666675;stroke-linecap:round;stroke-linejoin:miter;stroke-miterlimit:4;stroke-dasharray:none;stroke-dashoffset:0;stroke-opacity:1;color-rendering:auto;image-rendering:auto;shape-rendering:auto;text-rendering:auto;enable-background:accumulate" />
        </g>
        <g
           style="stroke:none;stroke-opacity:1"
           id="g4967"
           transform="translate(44.8)">
          <rect
             ry="3.2"
             rx="3.2"
             y="1077.7169"
             x="-39.466667"
             height="13.781355"
             width="40.533333"
             id="rect4144"
             style="opacity:1;fill:#aeea00;fill-opacity:1;stroke:none;stroke-width:3.20000005;stroke-linecap:round;stroke-linejoin:miter;stroke-miterlimit:3;stroke-dasharray:none;stroke-dashoffset:0;stroke-opacity:1" />
          <rect
             style="opacity:1;fill:#263238;fill-opacity:0.2;stroke:none;stroke-width:3.20000005;stroke-linecap:round;stroke-linejoin:miter;stroke-miterlimit:3;stroke-dasharray:none;stroke-dashoffset:0;stroke-opacity:1"
             id="rect4961"
             width="40.533333"
             height="10.666667"
             x="-39.466667"
             y="1080.8314"
             rx="3.2"
             ry="3.2" />
          <rect
             style="opacity:1;fill:#ffffff;fill-opacity:0.29803922;stroke:none;stroke-width:3.20000005;stroke-linecap:round;stroke-linejoin:miter;stroke-miterlimit:3;stroke-dasharray:none;stroke-dashoffset:0;stroke-opacity:1"
             id="rect4963"
             width="40.533333"
             height="10.666667"
             x="-39.466667"
             y="1077.7196"
             rx="3.2"
             ry="3.2" />
          <rect
             style="opacity:1;fill:#aeea00;fill-opacity:1;stroke:none;stroke-width:3.20000005;stroke-linecap:round;stroke-linejoin:miter;stroke-miterlimit:3;stroke-dasharray:none;stroke-dashoffset:0;stroke-opacity:1"
             id="rect4965"
             width="40.533333"
             height="11.350167"
             x="-39.466667"
             y="1078.9335"
             rx="3.2"
             ry="2.6192694" />
        </g>
        <g
           style="stroke:none;stroke-opacity:1"
           transform="translate(0,-0.10943031)"
           id="g4979">
          <rect
             ry="3.2"
             rx="3.2"
             y="1092.8236"
             x="5.3333335"
             height="27.56271"
             width="40.533333"
             id="rect4146"
             style="opacity:1;fill:#1976d2;fill-opacity:1;stroke:none;stroke-width:3.20000005;stroke-linecap:round;stroke-linejoin:miter;stroke-miterlimit:3;stroke-dasharray:none;stroke-dashoffset:0;stroke-opacity:1" />
          <rect
             style="opacity:1;fill:#263238;fill-opacity:0.2;stroke:none;stroke-width:3.20000005;stroke-linecap:round;stroke-linejoin:miter;stroke-miterlimit:3;stroke-dasharray:none;stroke-dashoffset:0;stroke-opacity:1"
             id="rect4973"
             width="40.533333"
             height="13.866667"
             x="5.3333335"
             y="1106.5197"
             rx="3.2"
             ry="3.2" />
          <rect
             style="opacity:1;fill:#ffffff;fill-opacity:0.2;stroke:none;stroke-width:3.20000005;stroke-linecap:round;stroke-linejoin:miter;stroke-miterlimit:3;stroke-dasharray:none;stroke-dashoffset:0;stroke-opacity:1"
             id="rect4975"
             width="40.533333"
             height="13.866667"
             x="5.3333335"
             y="1092.7383"
             rx="3.2"
             ry="3.2" />
          <rect
             style="opacity:1;fill:#1976d2;fill-opacity:1;stroke:none;stroke-width:3.20000005;stroke-linecap:round;stroke-linejoin:miter;stroke-miterlimit:3;stroke-dasharray:none;stroke-dashoffset:0;stroke-opacity:1"
             id="rect4977"
             width="40.533333"
             height="25.130705"
             x="5.3333335"
             y="1094.0396"
             rx="3.2"
             ry="2.8996968" />
        </g>
        <g
           style="stroke:none;stroke-opacity:1"
           id="g4211"
           transform="translate(0,1080.9197)">
          <path
             id="path4161"
             d="m 25.6,18.933333 c -3.072706,0 -5.674442,2.116998 -6.435417,4.960417 h 3.427084 c 0.591271,-1.051036 1.701451,-1.760417 3.008333,-1.760417 1.933538,0 3.466667,1.533129 3.466667,3.466667 0,1.933539 -1.533129,3.466667 -3.466667,3.466667 -1.39454,0 -2.572001,-0.80287 -3.125001,-1.972917 h -3.364582 c 0.685064,2.950139 3.340687,5.172917 6.489583,5.172917 3.662947,0 6.666667,-3.00372 6.666667,-6.666667 0,-3.662946 -3.00372,-6.666667 -6.666667,-6.666667 z"
             style="color:#000000;font-style:normal;font-variant:normal;font-weight:normal;font-stretch:normal;font-size:medium;line-height:normal;font-family:sans-serif;text-indent:0;text-align:start;text-decoration:none;text-decoration-line:none;text-decoration-style:solid;text-decoration-color:#000000;letter-spacing:normal;word-spacing:normal;text-transform:none;writing-mode:lr-tb;direction:ltr;baseline-shift:baseline;text-anchor:start;white-space:normal;clip-rule:nonzero;display:inline;overflow:visible;visibility:visible;opacity:1;isolation:auto;mix-blend-mode:normal;color-interpolation:sRGB;color-interpolation-filters:linearRGB;solid-color:#000000;solid-opacity:1;fill:#0d47a1;fill-opacity:1;fill-rule:nonzero;stroke:none;stroke-width:3.20000005;stroke-linecap:round;stroke-linejoin:miter;stroke-miterlimit:4;stroke-dasharray:none;stroke-dashoffset:0;stroke-opacity:1;color-rendering:auto;image-rendering:auto;shape-rendering:auto;text-rendering:auto;enable-background:accumulate" />
          <circle
             r="10.186666"
             cy="25.6"
             cx="25.6"
             id="path4209"
             style="opacity:1;fill:none;fill-opacity:0.40392157;stroke:none;stroke-width:2.02666664;stroke-linecap:round;stroke-linejoin:miter;stroke-miterlimit:4;stroke-dasharray:none;stroke-dashoffset:0;stroke-opacity:1" />
        </g>
        <g
           style="stroke:none;stroke-opacity:1"
           transform="translate(0,0.53335187)"
           id="g4989">
          <ellipse
             ry="4.1333332"
             rx="3.5999999"
             style="opacity:1;fill:#263238;fill-opacity:0.2;stroke:none;stroke-width:2.02666664;stroke-linecap:round;stroke-linejoin:miter;stroke-miterlimit:4;stroke-dasharray:none;stroke-dashoffset:0;stroke-opacity:1"
             id="circle4985"
             cx="15.333333"
             cy="1084.2531" />
          <circle
             r="3.5999999"
             cy="1084.7864"
             cx="15.333333"
             id="path4859"
             style="opacity:1;fill:#ffffff;fill-opacity:1;stroke:none;stroke-width:2.02666664;stroke-linecap:round;stroke-linejoin:miter;stroke-miterlimit:4;stroke-dasharray:none;stroke-dashoffset:0;stroke-opacity:1" />
        </g>
        <g
           style="stroke:none;stroke-opacity:1"
           id="g4201"
           transform="translate(20.8,0.53335187)">
          <ellipse
             cy="1084.2531"
             cx="15.333333"
             id="ellipse4175"
             style="opacity:1;fill:#263238;fill-opacity:0.2;stroke:none;stroke-width:2.02666664;stroke-linecap:round;stroke-linejoin:miter;stroke-miterlimit:4;stroke-dasharray:none;stroke-dashoffset:0;stroke-opacity:1"
             rx="3.5999999"
             ry="4.1333332" />
          <circle
             style="opacity:1;fill:#ffffff;fill-opacity:1;stroke:none;stroke-width:2.02666664;stroke-linecap:round;stroke-linejoin:miter;stroke-miterlimit:4;stroke-dasharray:none;stroke-dashoffset:0;stroke-opacity:1"
             id="circle4177"
             cx="15.333333"
             cy="1084.7864"
             r="3.5999999" />
        </g>
      </g>
      <path
         id="path4286"
         d="m 301.5625,319.82383 a 3.509126,3.509126 0 0 0 -2.83959,5.69166 l 10.10625,13.07917 c -0.3573,0.93602 -0.56249,1.94794 -0.56249,3.0125 v 19.425 c 0,4.66525 3.75555,8.42083 8.42083,8.42083 h 89.825 c 4.66528,0 8.42083,-3.75558 8.42083,-8.42083 v -19.425 c 0,-1.06515 -0.20272,-2.07813 -0.56041,-3.01458 l 10.10417,-13.07709 a 3.509126,3.509126 0 0 0 -2.59584,-5.68958 3.509126,3.509126 0 0 0 -2.95625,1.39792 l -9.61458,12.44374 c -0.87566,-0.30689 -1.81487,-0.48124 -2.79792,-0.48124 h -89.825 c -0.9828,0 -1.92037,0.1745 -2.79583,0.48124 L 304.275,321.22383 a 3.509126,3.509126 0 0 0 -2.7125,-1.4 z m 15.125,52.82916 c -4.66528,0 -8.42083,3.75558 -8.42083,8.42083 v 55.69167 c 0,4.66526 3.75555,8.42084 8.42083,8.42084 h 89.825 c 4.66528,0 8.42083,-3.75558 8.42083,-8.42084 v -55.69167 c 0,-4.66525 -3.75555,-8.42083 -8.42083,-8.42083 z"
         style="color:#000000;font-style:normal;font-variant:normal;font-weight:normal;font-stretch:normal;font-size:medium;line-height:normal;font-family:sans-serif;text-indent:0;text-align:start;text-decoration:none;text-decoration-line:none;text-decoration-style:solid;text-decoration-color:#000000;letter-spacing:normal;word-spacing:normal;text-transform:none;writing-mode:lr-tb;direction:ltr;baseline-shift:baseline;text-anchor:start;white-space:normal;clip-rule:nonzero;display:inline;overflow:visible;visibility:visible;opacity:1;isolation:auto;mix-blend-mode:normal;color-interpolation:sRGB;color-interpolation-filters:linearRGB;solid-color:#000000;solid-opacity:1;fill:url(#radialGradient4398);fill-opacity:1;fill-rule:evenodd;stroke:none;stroke-width:7.01754999;stroke-linecap:round;stroke-linejoin:miter;stroke-miterlimit:4;stroke-dasharray:none;stroke-dashoffset:0;stroke-opacity:1;color-rendering:auto;image-rendering:auto;shape-rendering:auto;text-rendering:auto;enable-background:accumulate" />
    </g>
  </g>
</svg>
