<?xml version="1.0" encoding="UTF-8"?>
<svg viewBox="0 0 470.07144 194.5" xmlns="http://www.w3.org/2000/svg">
 <defs>
  <linearGradient id="c" x2="0" y1="-118.31" y2="-292.05" gradientUnits="userSpaceOnUse">
   <stop stop-color="#ff8635" stop-opacity=".80142" offset="0"/>
   <stop stop-color="#f60" offset="1"/>
  </linearGradient>
  <linearGradient id="b" x1="14.568" x2="13.447" y1="221.76" y2="247.74" gradientUnits="userSpaceOnUse">
   <stop stop-color="#fff" stop-opacity=".58824" offset="0"/>
   <stop stop-color="#fff" stop-opacity="0" offset="1"/>
  </linearGradient>
  <linearGradient id="a" x2="0" y1="33.543" y2="291.34" gradientUnits="userSpaceOnUse">
   <stop stop-color="#fff" offset="0"/>
   <stop stop-color="#fff" stop-opacity="0" offset="1"/>
  </linearGradient>
 </defs>
 <g transform="translate(-67.201 -107.94)">
  <path transform="scale(1,-1)" d="m125.91-291.34h352.66a41.92 43.076 0 0 1 41.92 43.076v86.152a41.92 43.076 0 0 1 -41.92 43.076h-352.66a41.92 43.076 0 0 1 -41.92 -43.076v-86.152a41.92 43.076 0 0 1 41.92 -43.076" fill="url(#c)"/>
  <g transform="matrix(.77326 0 0 .80408 -674.3 -346.48)" fill="#fff" stroke-linejoin="round" stroke-width="1.9023">
   <path transform="translate(980.57 555.79)" d="m92 189a24 24 0 1 0 -48 0 24 24 0 1 0 48 0"/>
   <path d="m1140.6 768.79h-34c0-45.287-36.713-82-82-82v-34c64.065 0 116 51.935 116 116z"/>
   <path d="m1164.6 768.79c0-77.32-62.68-140-140-140v-35c96.65 0 175 78.35 175 175h-35z"/>
  </g>
  <g transform="matrix(-.96167 0 0 1 204.54 43.453)" fill="url(#b)">
   <path d="m70.745 228.62c-10.34 0-18.764 8.1543-19.25 18.375h38.531c-0.48623-10.221-8.9409-18.375-19.281-18.375z"/>
   <path d="m-3.2188 228.62c0 6.2757 0.63079 12.415 1.8125 18.344h28.125c-1.6862-5.828-2.5938-11.972-2.5938-18.344h-27.344z"/>
   <path d="m-50.656 228.62c0 6.2126 0.40695 12.344 1.1875 18.344h28.438c-0.97717-5.9662-1.5-12.101-1.5-18.344h-28.125z"/>
  </g>
  <g fill="url(#a)">
   <path d="m277.11 243v48.344h16.469v-1.25h12.188c7.9068-1e-4 12.845 0.33175 14.812 1 0.21447 0.07284 0.42067 0.16569 0.625 0.25h20.469c-0.83313-1.7328-1.9098-3.3305-3.2188-4.7812-3.6008-3.9906-8.9919-6.4918-16.156-7.5312 3.5636-2.0788 6.5236-4.3879 8.8438-6.875s5.4401-6.9023 9.375-13.25l9.9688-15.906h-19.719l-11.906 17.75c-4.2318 6.3477-7.1285 10.348-8.6875 12s-3.2241 2.7937-4.9688 3.4062-4.4949 0.90615-8.2812 0.90625h-3.3438v-34.062h-16.469z"/>
   <path d="m391.16 244.25c-10.32 0-18.25 2.3862-23.781 7.1562s-8.8298 11.743-9.9062 20.875l16.031 1.5625c0.96514-5.3826 2.9238-9.3508 5.875-11.875s6.9261-3.7812 11.938-3.7812c5.3083 1e-5 9.3087 1.1292 12 3.375s4.0624 4.8682 4.0625 7.875c-5e-5 1.9302-0.58661 3.5826-1.7188 4.9375s-3.1163 2.5289-5.9375 3.5312c-1.9304 0.66816-6.3201 1.8549-13.188 3.5625-8.8349 2.1901-15.03 4.87-18.594 8.0625-0.66049 0.59198-1.2703 1.1863-1.8438 1.8125h44.312c0.39928-0.18955 0.79408-0.37179 1.1562-0.5625 3.842-2.0231 6.8596-4.7734 9.0312-8.2812s3.2499-7.8402 3.25-13c-9e-5 -4.6773-1.3078-9.073-3.9062-13.156s-6.2798-7.1077-11.031-9.0938-10.66-3-17.75-3z"/>
   <path d="m467.62 244.28c-10.32 0-18.219 2.3862-23.75 7.1562s-8.861 11.743-9.9375 20.875l16.062 1.5312c0.96514-5.3826 2.9238-9.3196 5.875-11.844s6.9261-3.7812 11.938-3.7812c5.3083 0 9.3087 1.1292 12 3.375s4.0312 4.8682 4.0312 7.875c-5e-5 1.9303-0.55536 3.5513-1.6875 4.9062s-3.1163 2.5289-5.9375 3.5312c-1.9303 0.66817-6.3201 1.8862-13.188 3.5938-8.8349 2.1901-15.061 4.87-18.625 8.0625-0.6495 0.58213-1.2472 1.1661-1.8125 1.7812h44.375c0.36905-0.17642 0.75682-0.35383 1.0938-0.53125 3.842-2.0231 6.8284-4.8046 9-8.3125s3.2499-7.8402 3.25-13c-8e-5 -4.6773-1.2766-9.0418-3.875-13.125s-6.2798-7.1077-11.031-9.0938-10.691-3-17.781-3z"/>
  </g>
  <path d="m277.52 242.98v-81.629h34.69c8.7234 1e-4 15.062 0.73316 19.015 2.1994s7.1179 4.0741 9.4937 7.8234 3.5636 8.0368 3.5636 12.862c-8e-5 6.1251-1.8004 11.183-5.4011 15.173s-8.9834 6.5055-16.148 7.5449c3.5636 2.0788 6.5054 4.3617 8.8255 6.8488s5.4475 6.9045 9.3824 13.252l9.967 15.925h-19.711l-11.916-17.762c-4.2319-6.3477-7.1273-10.347-8.6864-11.999s-3.211-2.7841-4.9557-3.3967-4.5102-0.91865-8.2966-0.91875h-3.3409v34.077h-16.482zm16.482-47.107h12.194c7.9068 9e-5 12.844-0.33403 14.811-1.0023s3.5079-1.8189 4.6216-3.4522 1.6704-3.6749 1.6705-6.125c-7e-5 -2.7469-0.73321-4.9649-2.1994-6.654s-3.5358-2.7562-6.2085-3.2016c-1.3364-0.1855-5.3455-0.27835-12.027-0.27844h-12.862v20.714zm61.695 20.547 16.036-1.5591c0.96512 5.3826 2.9233 9.3359 5.8744 11.86s6.9323 3.7864 11.944 3.7864c5.3083 0 9.3081-1.1229 11.999-3.3687s4.0369-4.8721 4.0369-7.8789c-6e-5 -1.9302-0.56615-3.5729-1.6983-4.9279s-3.109-2.5334-5.9301-3.5358c-1.9303-0.66816-6.3292-1.856-13.197-3.5636-8.8349-2.1901-15.034-4.8813-18.598-8.0738-5.0114-4.4916-7.517-9.9669-7.517-16.426-1e-5 -4.1576 1.1786-8.0459 3.5358-11.665s5.7538-6.3755 10.19-8.2688 9.7907-2.8397 16.064-2.8398c10.245 9e-5 17.957 2.2459 23.136 6.7375s7.8974 10.487 8.1574 17.985l-16.482 0.72384c-0.70535-4.1946-2.218-7.2107-4.5381-9.0483s-5.8002-2.7562-10.44-2.7563c-4.7886 1e-4 -8.5379 0.98376-11.248 2.9512-1.7447 1.2622-2.6171 2.9512-2.617 5.067-3e-5 1.9304 0.81664 3.5823 2.45 4.9556 2.0788 1.7448 7.1272 3.5637 15.145 5.4568s13.948 3.8514 17.79 5.8745 6.8488 4.7886 9.0204 8.2965 3.2573 7.8419 3.2574 13.002c-8e-5 4.6773-1.2993 9.0576-3.8977 13.141s-6.2735 7.1179-11.025 9.104-10.672 2.979-17.762 2.979c-10.32 0-18.245-2.3851-23.776-7.1551s-8.8348-11.721-9.9113-20.853zm76.173 0 16.036-1.5591c0.96512 5.3826 2.9233 9.3359 5.8744 11.86s6.9323 3.7864 11.944 3.7864c5.3083 0 9.3081-1.1229 11.999-3.3687s4.0369-4.8721 4.0369-7.8789c0-1.9302-0.56609-3.5729-1.6983-4.9279s-3.1089-2.5334-5.9301-3.5358c-1.9304-0.66816-6.3292-1.856-13.197-3.5636-8.8349-2.1901-15.034-4.8813-18.598-8.0738-5.0114-4.4916-7.517-9.9669-7.517-16.426-1e-5 -4.1576 1.1786-8.0459 3.5358-11.665s5.7538-6.3755 10.19-8.2688 9.7907-2.8397 16.064-2.8398c10.245 9e-5 17.957 2.2459 23.136 6.7375s7.8974 10.487 8.1574 17.985l-16.482 0.72384c-0.70532-4.1946-2.218-7.2107-4.5381-9.0483s-5.8002-2.7562-10.44-2.7563c-4.7886 1e-4 -8.5379 0.98376-11.248 2.9512-1.7447 1.2622-2.6171 2.9512-2.617 5.067-3e-5 1.9304 0.81664 3.5823 2.45 4.9556 2.0788 1.7448 7.1272 3.5637 15.145 5.4568s13.948 3.8514 17.79 5.8745 6.8487 4.7886 9.0204 8.2965 3.2572 7.8419 3.2573 13.002c-1e-4 4.6773-1.2994 9.0576-3.8978 13.141s-6.2735 7.1179-11.025 9.104-10.672 2.979-17.762 2.979c-10.32 0-18.245-2.3851-23.776-7.1551s-8.8348-11.721-9.9113-20.853z" fill="#fff"/>
  <path d="m388.16 159.09c-6.2735 1e-4 -11.627 0.95066-16.062 2.8438s-7.8303 4.662-10.188 8.2812-3.5313 7.4987-3.5312 11.656c0 2.2563 0.29473 4.39 0.90625 6.4062 5.1172-0.97157 10.665-2.1076 16.5-3.3438-1.0978-1.2082-1.6563-2.605-1.6562-4.1875-3e-5 -2.1158 0.88028-3.8003 2.625-5.0625 2.7098-1.9674 6.4614-2.9374 11.25-2.9375 4.6401 1e-4 8.1174 0.91259 10.438 2.75 1.213 0.96081 2.1971 2.2386 2.9688 3.8438 5.6896-1.2684 11.196-2.4632 16.594-3.6562-1.3311-3.8338-3.5758-7.1176-6.7188-9.8438-5.1784-4.4916-12.88-6.7499-23.125-6.75zm76.156 0c-6.2735 1e-4 -11.627 0.95066-16.062 2.8438s-7.8303 4.662-10.188 8.2812c-0.28179 0.43268-0.53315 0.87213-0.78125 1.3125 9.8832-2.0253 17.574-3.375 21.062-3.375 4.0155 0 12.563-2.515 22.656-6.25-4.5034-1.8735-10.071-2.8124-16.688-2.8125zm-178.53 1.4062c4.5246 4.2993 10.019 9.1838 16.062 13.812h4.75c6.6818 1e-4 10.664 0.09576 12 0.28125 2.6727 0.4455 4.7524 1.4986 6.2188 3.1875s2.1874 3.9093 2.1875 6.6562c-4e-5 1.5879-0.21972 3.0052-0.6875 4.25 5.4188 1.999 10.739 2.9995 15.656 2.4375 0.28901-0.03303 0.60702-0.08839 0.90625-0.125 0.7314-2.3269 1.125-4.8645 1.125-7.625-8e-5 -4.8256-1.1868-9.0945-3.5625-12.844s-5.5466-6.3773-9.5-7.8438-10.277-2.1874-19-2.1875h-26.156z" fill="#fff" fill-rule="evenodd" opacity=".1"/>
 </g>
</svg>
