<?xml version="1.0" encoding="utf-8"?>
<!-- Generator: Adobe Illustrator 25.0.1, SVG Export Plug-In . SVG Version: 6.00 Build 0)  -->
<svg version="1.1"
	 id="svg8502" xmlns:cc="http://creativecommons.org/ns#" xmlns:dc="http://purl.org/dc/elements/1.1/" xmlns:rdf="http://www.w3.org/1999/02/22-rdf-syntax-ns#" xmlns:svg="http://www.w3.org/2000/svg"
	 xmlns="http://www.w3.org/2000/svg" xmlns:xlink="http://www.w3.org/1999/xlink" x="0px" y="0px" viewBox="0 0 597.3 174.9"
	 style="enable-background:new 0 0 597.3 174.9;" xml:space="preserve">
<style type="text/css">
	.st0{display:none;}
	.st1{display:inline;}
	.st2{fill:#FFFFFF;}
	.st3{fill-rule:evenodd;clip-rule:evenodd;fill:#8AB000;}
	.st4{fill-rule:evenodd;clip-rule:evenodd;fill:#FFFFFF;fill-opacity:0.298;}
	.st5{fill-rule:evenodd;clip-rule:evenodd;fill:#263238;fill-opacity:0.2;}
	.st6{fill:#AEEA00;}
	.st7{fill:#263238;fill-opacity:0.2;}
	.st8{fill:#FFFFFF;fill-opacity:0.298;}
	.st9{fill:#1976D2;}
	.st10{fill:#FFFFFF;fill-opacity:0.2;}
	.st11{fill:#0D47A1;}
	.st12{fill:none;}
	.st13{fill-rule:evenodd;clip-rule:evenodd;fill:url(#path4286_1_);}
	.st14{fill:#CD201F;}
</style>
<g id="layer1" transform="translate(-354.13333,-379.05301)" class="st0">
	<path id="rect3007_1_" class="st1" d="M375.5,379.1h554.7c11.8,0,21.3,9.6,21.3,21.3v132.3c0,11.8-9.6,21.3-21.3,21.3H375.5
		c-11.8,0-21.3-9.6-21.3-21.3V400.4C354.1,388.6,363.7,379.1,375.5,379.1z"/>
	<g id="text3013" class="st1">
		<path id="path63" class="st2" d="M564.5,425.4v-7.1h-5.9v-3h9.4v11.4c-1.4,1-2.9,1.7-4.6,2.2c-1.7,0.5-3.5,0.7-5.3,0.7
			c-4.1,0-7.4-1.2-9.7-3.6c-2.3-2.4-3.5-5.8-3.5-10.1c0-4.3,1.2-7.7,3.5-10.1c2.3-2.4,5.6-3.6,9.7-3.6c1.7,0,3.4,0.2,4.9,0.6
			c1.6,0.4,3,1.1,4.3,1.9v3.8c-1.3-1.1-2.7-2-4.2-2.5c-1.5-0.6-3.1-0.9-4.7-0.9c-3.2,0-5.7,0.9-7.3,2.7c-1.6,1.8-2.4,4.5-2.4,8.1
			c0,3.6,0.8,6.3,2.4,8.1c1.6,1.8,4.1,2.7,7.3,2.7c1.3,0,2.4-0.1,3.4-0.3C562.9,426.2,563.8,425.9,564.5,425.4z"/>
		<path id="path65" class="st2" d="M574.7,402.7h16.8v3h-13.2v7.9h12.6v3h-12.6v9.6h13.5v3h-17.1V402.7z"/>
		<path id="path67" class="st2" d="M594,402.7h22.4v3h-9.4v23.5h-3.6v-23.5H594V402.7z"/>
		<path id="path69" class="st2" d="M631.6,402.7h3.6v26.5h-3.6V402.7z"/>
		<path id="path71" class="st2" d="M638.6,402.7h22.4v3h-9.4v23.5H648v-23.5h-9.4V402.7z"/>
		<path id="path73" class="st2" d="M686.9,405.1c-2.6,0-4.7,1-6.2,2.9c-1.5,1.9-2.3,4.6-2.3,7.9c0,3.3,0.8,6,2.3,7.9
			c1.5,1.9,3.6,2.9,6.2,2.9c2.6,0,4.7-1,6.2-2.9c1.5-1.9,2.3-4.6,2.3-7.9c0-3.4-0.8-6-2.3-7.9C691.6,406.1,689.5,405.1,686.9,405.1
			L686.9,405.1z M686.9,402.2c3.7,0,6.7,1.3,8.9,3.8c2.2,2.5,3.3,5.8,3.3,10c0,4.2-1.1,7.5-3.3,10c-2.2,2.5-5.2,3.7-8.9,3.7
			c-3.7,0-6.7-1.2-9-3.7c-2.2-2.5-3.3-5.8-3.3-10c0-4.2,1.1-7.5,3.3-10C680.2,403.4,683.2,402.2,686.9,402.2z"/>
		<path id="path75" class="st2" d="M704.8,402.7h4.8l11.8,22.2v-22.2h3.5v26.5H720L708.3,407v22.2h-3.5V402.7z"/>
	</g>
	<g id="text5902" class="st1">
		<path id="path48" class="st2" d="M544.9,513.3l7.7-1.5v-51.7l-7.7-1.5v-8.7h57.3v19.7h-11.1l-0.6-8.6H567v19.8h25.2v11.1H567v19.8
			l7.7,1.5v8.7h-29.8V513.3z"/>
		<path id="path50" class="st2" d="M639,496.8h-27.9v-11.1H639V496.8z"/>
		<path id="path52" class="st2" d="M680.2,449.9c8.8,0,16.1,2.8,21.8,8.5c5.7,5.6,8.6,12.8,8.6,21.6V492c0,8.8-2.9,16.1-8.6,21.7
			c-5.7,5.6-13,8.4-21.8,8.4h-32.4v-8.7l7.7-1.5v-51.7l-7.7-1.5v-8.7h7.7L680.2,449.9z M669.9,461.1v49.8h9.5
			c5.2,0,9.2-1.7,12.2-5.2s4.4-8.1,4.4-13.7v-12c0-5.6-1.5-10.1-4.4-13.6s-7-5.2-12.2-5.2L669.9,461.1z"/>
		<path id="path54" class="st2" d="M719.1,513.3l6.9-1.5v-33.2l-7.7-1.5v-8.7h21.1l0.6,7.8c1.3-2.8,2.9-4.9,4.8-6.5
			c2-1.6,4.3-2.3,6.9-2.3c0.8,0,1.6,0.1,2.4,0.2c0.9,0.1,1.6,0.2,2.1,0.4l-1.5,13.2l-5.9-0.1c-2.1,0-3.9,0.4-5.2,1.2
			c-1.4,0.8-2.4,2-3.2,3.5v26l6.9,1.5v8.7h-28.3V513.3z"/>
		<path id="path56" class="st2" d="M759.8,494.7c0-8,2.2-14.5,6.7-19.6c4.5-5.1,10.7-7.7,18.6-7.7c7.9,0,14.1,2.5,18.6,7.6
			c4.5,5.1,6.7,11.6,6.7,19.6v1c0,8-2.2,14.6-6.7,19.7c-4.5,5-10.6,7.6-18.5,7.6c-7.9,0-14.2-2.5-18.7-7.6
			c-4.5-5.1-6.7-11.6-6.7-19.7V494.7z M774.2,495.8c0,4.9,0.9,8.8,2.6,11.8c1.7,2.9,4.5,4.4,8.3,4.4c3.7,0,6.4-1.5,8.2-4.5
			c1.7-3,2.6-6.9,2.6-11.7v-1c0-4.8-0.9-8.6-2.6-11.6c-1.7-3-4.5-4.5-8.3-4.5c-3.8,0-6.5,1.5-8.2,4.5c-1.7,3-2.6,6.9-2.6,11.6V495.8
			z"/>
		<path id="path58" class="st2" d="M816.1,513.3l7-1.5v-33.2l-7.7-1.5v-8.7h22.2v43.4l6.9,1.5v8.7h-28.4V513.3z M837.5,455.6h-14.4
			v-10.8h14.4V455.6z"/>
		<path id="path60" class="st2" d="M884,515.5c-1.7,2.5-3.7,4.4-6,5.6c-2.3,1.3-4.9,1.9-7.8,1.9c-6.6,0-11.7-2.4-15.4-7.2
			c-3.6-4.8-5.4-11.2-5.4-19.1v-1c0-8.4,1.8-15.3,5.5-20.4c3.7-5.2,8.8-7.8,15.4-7.8c2.7,0,5.1,0.6,7.2,1.8c2.1,1.2,4,2.8,5.6,4.9
			V455l-7.7-1.5v-8.7h7.7h14.4v67l6.9,1.5v8.7h-19.4L884,515.5z M863.9,496.7c0,4.7,0.8,8.4,2.3,11.1c1.6,2.7,4.2,4,7.7,4
			c2.1,0,3.9-0.4,5.5-1.3c1.6-0.9,2.8-2.1,3.8-3.7v-22.7c-1-1.7-2.3-3-3.8-4c-1.5-1-3.3-1.4-5.4-1.4c-3.5,0-6.1,1.6-7.7,4.7
			s-2.4,7.2-2.4,12.3L863.9,496.7z"/>
	</g>
	<g id="g4400" transform="translate(86.399991,81.066663)" class="st1">
		<g id="g5012" transform="matrix(2.6315876,0,0,2.6315749,294.23174,-2502.9062)">
			<g id="g4179" transform="matrix(-1,0,0,1,51.199764,0)">
				<path id="path4181" class="st3" d="M2.8,1074l4.5,5.9"/>
				<path id="path4183" class="st4" d="M2.8,1072.7c-0.5,0-0.8,0.2-1,0.5c2.2,2.6,2.5,3,5.5,6.6c1.1,1.4,2.2,0.7,1.1-0.7l-4.5-5.9
					C3.6,1072.8,3.2,1072.7,2.8,1072.7L2.8,1072.7z"/>
				<path id="path4185" class="st5" d="M1.7,1073.1c-0.1,0.2-0.6,0.9,0,1.7l4.5,5.9c1.1,1.4,1.2-0.7,1.2-0.7S3.5,1075.2,1.7,1073.1z
					"/>
				<path id="path4187" class="st3" d="M2.5,1072.9c-0.5,0-1,0.2-0.9,0.9c0.1,0.5,5,6.5,5,6.5c1.1,1.4,2.7,0.7,1.6-0.7l-4.5-5.8
					C3.4,1073.4,3,1072.9,2.5,1072.9L2.5,1072.9z"/>
			</g>
			<g id="g4955">
				<path id="path4945" class="st3" d="M2.8,1074l4.5,5.9"/>
				<path id="path4947" class="st4" d="M2.8,1072.7c-0.5,0-0.8,0.2-1,0.5c2.2,2.6,2.5,3,5.5,6.6c1.1,1.4,2.2,0.7,1.1-0.7l-4.5-5.9
					C3.6,1072.8,3.2,1072.7,2.8,1072.7L2.8,1072.7z"/>
				<path id="path4951" class="st5" d="M1.7,1073.1c-0.1,0.2-0.6,0.9,0,1.7l4.5,5.9c1.1,1.4,1.2-0.7,1.2-0.7S3.5,1075.2,1.7,1073.1z
					"/>
				<path id="path4925" class="st3" d="M2.5,1072.9c-0.5,0-1,0.2-0.9,0.9c0.1,0.5,5,6.5,5,6.5c1.1,1.4,2.7,0.7,1.6-0.7l-4.5-5.8
					C3.4,1073.4,3,1072.9,2.5,1072.9L2.5,1072.9z"/>
			</g>
			<g id="g4967" transform="translate(44.8)">
				<path id="rect4144" class="st6" d="M-36.3,1077.7h34.1c1.8,0,3.2,1.4,3.2,3.2v7.4c0,1.8-1.4,3.2-3.2,3.2h-34.1
					c-1.8,0-3.2-1.4-3.2-3.2v-7.4C-39.5,1079.1-38,1077.7-36.3,1077.7z"/>
				<path id="rect4961" class="st7" d="M-36.3,1080.8h34.1c1.8,0,3.2,1.4,3.2,3.2v4.3c0,1.8-1.4,3.2-3.2,3.2h-34.1
					c-1.8,0-3.2-1.4-3.2-3.2v-4.3C-39.5,1082.3-38,1080.8-36.3,1080.8z"/>
				<path id="rect4963" class="st8" d="M-36.3,1077.7h34.1c1.8,0,3.2,1.4,3.2,3.2v4.3c0,1.8-1.4,3.2-3.2,3.2h-34.1
					c-1.8,0-3.2-1.4-3.2-3.2v-4.3C-39.5,1079.2-38,1077.7-36.3,1077.7z"/>
				<path id="rect4965" class="st6" d="M-36.3,1078.9h34.1c1.8,0,3.2,1.2,3.2,2.6v6.1c0,1.4-1.4,2.6-3.2,2.6h-34.1
					c-1.8,0-3.2-1.2-3.2-2.6v-6.1C-39.5,1080.1-38,1078.9-36.3,1078.9z"/>
			</g>
			<g id="g4979" transform="translate(0,-0.10943031)">
				<path id="rect4146" class="st9" d="M8.5,1092.8h34.1c1.8,0,3.2,1.4,3.2,3.2v21.2c0,1.8-1.4,3.2-3.2,3.2H8.5
					c-1.8,0-3.2-1.4-3.2-3.2V1096C5.3,1094.3,6.8,1092.8,8.5,1092.8z"/>
				<path id="rect4973" class="st7" d="M8.5,1106.5h34.1c1.8,0,3.2,1.4,3.2,3.2v7.5c0,1.8-1.4,3.2-3.2,3.2H8.5
					c-1.8,0-3.2-1.4-3.2-3.2v-7.5C5.3,1108,6.8,1106.5,8.5,1106.5z"/>
				<path id="rect4975" class="st10" d="M8.5,1092.7h34.1c1.8,0,3.2,1.4,3.2,3.2v7.5c0,1.8-1.4,3.2-3.2,3.2H8.5
					c-1.8,0-3.2-1.4-3.2-3.2v-7.5C5.3,1094.2,6.8,1092.7,8.5,1092.7z"/>
				<path id="rect4977" class="st9" d="M8.5,1094h34.1c1.8,0,3.2,1.3,3.2,2.9v19.3c0,1.6-1.4,2.9-3.2,2.9H8.5
					c-1.8,0-3.2-1.3-3.2-2.9v-19.3C5.3,1095.3,6.8,1094,8.5,1094z"/>
			</g>
			<g id="g4211" transform="translate(0,1080.9197)">
				<path id="path4161" class="st11" d="M25.6,18.9c-3.1,0-5.7,2.1-6.4,5h3.4c0.6-1.1,1.7-1.8,3-1.8c1.9,0,3.5,1.5,3.5,3.5
					s-1.5,3.5-3.5,3.5c-1.4,0-2.6-0.8-3.1-2h-3.4c0.7,3,3.3,5.2,6.5,5.2c3.7,0,6.7-3,6.7-6.7S29.3,18.9,25.6,18.9z"/>
				
					<ellipse id="path4209" transform="matrix(2.437110e-03 -1 1 2.437110e-03 -6.225821e-02 51.1375)" class="st12" cx="25.6" cy="25.6" rx="26.8" ry="26.8"/>
			</g>
			<g id="g4989" transform="translate(0,0.53335187)">
				<ellipse id="circle4985" class="st7" cx="15.3" cy="1084.3" rx="3.6" ry="4.1"/>
				<circle id="path4859" class="st2" cx="15.3" cy="1084.8" r="3.6"/>
			</g>
			<g id="g4201" transform="translate(20.8,0.53335187)">
				<ellipse id="ellipse4175" class="st7" cx="15.3" cy="1084.3" rx="3.6" ry="4.1"/>
				<circle id="circle4177" class="st2" cx="15.3" cy="1084.8" r="3.6"/>
			</g>
		</g>
		
			<radialGradient id="path4286_1_" cx="445.1906" cy="1380.962" r="59.6619" gradientTransform="matrix(-4.631055e-08 2.0918 2.1097 -3.039349e-08 -2614.7021 -610.8578)" gradientUnits="userSpaceOnUse">
			<stop  offset="0" style="stop-color:#FFFFFF;stop-opacity:9.803922e-02"/>
			<stop  offset="1" style="stop-color:#FFFFFF;stop-opacity:0"/>
		</radialGradient>
		<path id="path4286" class="st13" d="M301.6,319.8c-1.9-0.1-3.5,1.5-3.6,3.4c0,0.8,0.2,1.6,0.8,2.3l10.1,13.1
			c-0.4,0.9-0.6,1.9-0.6,3V361c0,4.7,3.8,8.4,8.4,8.4h89.8c4.7,0,8.4-3.8,8.4-8.4v-19.4c0-1.1-0.2-2.1-0.6-3l10.1-13.1
			c1.2-1.5,1-3.7-0.6-4.9c-0.6-0.5-1.3-0.7-2-0.8c-1.2,0-2.3,0.5-3,1.4l-9.6,12.4c-0.9-0.3-1.8-0.5-2.8-0.5h-89.8
			c-1,0-1.9,0.2-2.8,0.5l-9.6-12.4C303.6,320.4,302.6,319.9,301.6,319.8z M316.7,372.7c-4.7,0-8.4,3.8-8.4,8.4v55.7
			c0,4.7,3.8,8.4,8.4,8.4h89.8c4.7,0,8.4-3.8,8.4-8.4v-55.7c0-4.7-3.8-8.4-8.4-8.4H316.7z"/>
	</g>
</g>
<image style="overflow:visible;" width="597" height="175" xlink:href="545E1F4E.jpg"  transform="matrix(1 0 0 1 -7596 -7349.2207)">
</image>
<g id="rect3007">
	<path class="st14" d="M21.3,171.9c-10.1,0-18.3-8.2-18.3-18.3V21.3C3,11.2,11.2,3,21.3,3H576c10.1,0,18.3,8.2,18.3,18.3v132.3
		c0,10.1-8.2,18.3-18.3,18.3H21.3z"/>
	<path class="st2" d="M576,6c8.5,0,15.3,6.9,15.3,15.3v132.3c0,8.5-6.9,15.3-15.3,15.3H21.3c-8.5,0-15.3-6.9-15.3-15.3V21.3
		C6,12.9,12.9,6,21.3,6H576 M576,0H21.3C9.6,0,0,9.6,0,21.3v132.3c0,11.8,9.6,21.3,21.3,21.3H576c11.8,0,21.3-9.6,21.3-21.3V21.3
		C597.3,9.6,587.8,0,576,0L576,0z"/>
</g>
<image style="overflow:visible;" width="597" height="175" xlink:href="545E1F52.jpg"  transform="matrix(1 0 0 1 -7596 -7349.2207)">
</image>
<image style="display:none;overflow:visible;opacity:0.35;" width="168" height="91" xlink:href="545E1F55.jpg"  transform="matrix(2.2726 0 0 2.2726 -32.6874 -16.2417)">
</image>
<g>
	<g>
		<path class="st2" d="M178.8,89.4v-5.5l20,0v17.5c-3.1,2.4-6.2,4.3-9.5,5.5c-3.3,1.2-6.6,1.9-10.1,1.9c-4.6,0-8.9-1-12.6-3
			c-3.8-2-6.7-4.9-8.6-8.6s-2.9-8-2.9-12.6c0-4.6,1-8.9,2.9-12.9c1.9-4,4.7-6.9,8.3-8.9s7.8-2.9,12.5-2.9c3.4,0,6.5,0.6,9.3,1.7
			c2.8,1.1,4.9,2.6,6.5,4.6c1.6,2,2.8,4.6,3.6,7.7l-5.6,1.5c-0.7-2.4-1.6-4.3-2.6-5.7c-1.1-1.4-2.6-2.5-4.5-3.3
			c-2-0.8-4.1-1.2-6.5-1.2c-2.9,0-5.3,0.4-7.4,1.3c-2.1,0.9-3.8,2-5,3.4c-1.3,1.4-2.3,3-3,4.7c-1.2,2.9-1.8,6.1-1.8,9.5
			c0,4.2,0.7,7.7,2.2,10.6s3.6,4.9,6.3,6.3s5.7,2.1,8.8,2.1c2.7,0,5.3-0.5,7.9-1.6s4.5-2.2,5.9-3.3v-8.8H178.8z"/>
		<path class="st2" d="M230.7,96.9l6,0.7c-0.9,3.5-2.7,6.2-5.3,8.2c-2.6,1.9-5.8,2.9-9.8,2.9c-5,0-9-1.5-11.9-4.6
			c-2.9-3.1-4.4-7.4-4.4-13c0-5.8,1.5-10.2,4.4-13.4c3-3.2,6.8-4.8,11.5-4.8c4.6,0,8.3,1.6,11.2,4.7c2.9,3.1,4.4,7.5,4.4,13.1
			c0,0.3,0,0.9,0,1.5h-25.5c0.2,3.8,1.3,6.6,3.2,8.6c1.9,2,4.3,3,7.2,3c2.1,0,3.9-0.6,5.4-1.7C228.6,101.1,229.8,99.4,230.7,96.9z
			 M211.6,87.5h19.1c-0.3-2.9-1-5-2.2-6.5c-1.8-2.2-4.2-3.4-7.2-3.4c-2.7,0-4.9,0.9-6.7,2.7C212.8,82.2,211.8,84.5,211.6,87.5z"/>
		<path class="st2" d="M256.6,102.7l0.8,5.1c-1.6,0.3-3.1,0.5-4.4,0.5c-2.1,0-3.7-0.3-4.9-1s-2-1.5-2.4-2.6
			c-0.5-1.1-0.7-3.4-0.7-6.8V78.2h-4.3v-4.5h4.3v-8.5l5.8-3.5v12h5.8v4.5h-5.8v20c0,1.7,0.1,2.7,0.3,3.2c0.2,0.5,0.5,0.8,1,1.1
			c0.5,0.3,1.1,0.4,2,0.4C254.7,103,255.6,102.9,256.6,102.7z"/>
		<path class="st2" d="M281.3,107.9V60.7h6.4l24.8,37.1V60.7h6v47.2h-6.4l-24.8-37.1v37.1H281.3z"/>
		<path class="st2" d="M351.7,96.9l6,0.7c-0.9,3.5-2.7,6.2-5.3,8.2s-5.8,2.9-9.8,2.9c-5,0-9-1.5-11.9-4.6c-2.9-3.1-4.4-7.4-4.4-13
			c0-5.8,1.5-10.2,4.4-13.4c3-3.2,6.8-4.8,11.5-4.8c4.6,0,8.3,1.6,11.2,4.7c2.9,3.1,4.3,7.5,4.3,13.1c0,0.3,0,0.9,0,1.5h-25.5
			c0.2,3.8,1.3,6.6,3.2,8.6s4.3,3,7.2,3c2.1,0,3.9-0.6,5.4-1.7S350.8,99.4,351.7,96.9z M332.7,87.5h19.1c-0.3-2.9-1-5-2.2-6.5
			c-1.8-2.2-4.2-3.4-7.2-3.4c-2.7,0-4.9,0.9-6.7,2.7C333.9,82.2,332.9,84.5,332.7,87.5z"/>
		<path class="st2" d="M371.3,107.9l-10.5-34.2h6l5.4,19.8l2,7.3c0.1-0.4,0.7-2.7,1.8-7.1l5.4-20h6l5.1,19.9l1.7,6.5l2-6.6l5.9-19.8
			h5.6l-10.7,34.2h-6l-5.4-20.5l-1.3-5.8l-6.9,26.3H371.3z"/>
		<path class="st2" d="M413.4,107.9V60.7h17.8c3.1,0,5.5,0.2,7.2,0.5c2.3,0.4,4.3,1.1,5.8,2.2c1.6,1.1,2.8,2.6,3.8,4.6
			c1,2,1.4,4.1,1.4,6.4c0,4-1.3,7.4-3.8,10.2c-2.6,2.8-7.2,4.2-13.9,4.2h-12.1v19.2H413.4z M419.6,83.2h12.2c4,0,6.9-0.8,8.6-2.3
			c1.7-1.5,2.5-3.6,2.5-6.3c0-2-0.5-3.7-1.5-5.1c-1-1.4-2.3-2.3-3.9-2.8c-1.1-0.3-3-0.4-5.8-0.4h-12.1V83.2z"/>
		<path class="st2" d="M456.7,67.4v-6.7h5.8v6.7H456.7z M456.7,107.9V73.7h5.8v34.2H456.7z"/>
		<path class="st2" d="M471.3,121V73.7h5.3v4.4c1.2-1.7,2.7-3,4.2-3.9s3.5-1.3,5.7-1.3c2.9,0,5.5,0.8,7.7,2.3
			c2.2,1.5,3.9,3.6,5.1,6.4s1.7,5.7,1.7,9c0,3.5-0.6,6.7-1.9,9.5c-1.3,2.8-3.1,5-5.5,6.4c-2.4,1.5-4.9,2.2-7.6,2.2
			c-1.9,0-3.7-0.4-5.2-1.2s-2.8-1.8-3.8-3.1V121H471.3z M476.6,91c0,4.4,0.9,7.7,2.7,9.8s3.9,3.2,6.5,3.2c2.6,0,4.8-1.1,6.6-3.3
			c1.8-2.2,2.8-5.6,2.8-10.1c0-4.4-0.9-7.6-2.7-9.8c-1.8-2.2-3.9-3.3-6.4-3.3c-2.5,0-4.7,1.2-6.6,3.5
			C477.5,83.3,476.6,86.6,476.6,91z"/>
		<path class="st2" d="M531.5,96.9l6,0.7c-0.9,3.5-2.7,6.2-5.3,8.2s-5.8,2.9-9.8,2.9c-5,0-9-1.5-11.9-4.6c-2.9-3.1-4.4-7.4-4.4-13
			c0-5.8,1.5-10.2,4.4-13.4c3-3.2,6.8-4.8,11.5-4.8c4.6,0,8.3,1.6,11.2,4.7c2.9,3.1,4.4,7.5,4.4,13.1c0,0.3,0,0.9,0,1.5h-25.5
			c0.2,3.8,1.3,6.6,3.2,8.6s4.3,3,7.2,3c2.1,0,3.9-0.6,5.4-1.7S530.6,99.4,531.5,96.9z M512.4,87.5h19.1c-0.3-2.9-1-5-2.2-6.5
			c-1.8-2.2-4.2-3.4-7.2-3.4c-2.7,0-4.9,0.9-6.7,2.7C513.6,82.2,512.6,84.5,512.4,87.5z"/>
	</g>
	<g>
		<g id="Elemek">
			<path id="XMLID_19_" class="st2" d="M78.8,60.1c-11.3-6.6-19.2-11.3-19.2-11.3v77.3c0,0,38.1-22.6,65.5-38.7
				C110.3,78.6,92.3,68,78.8,60.1z"/>
		</g>
		<g id="Fedő">
			<path id="XMLID_5_" class="st14" d="M80.6,75c-5.1-3-8.8-5.1-8.8-5.1v35.1c0,0,17.4-10.3,29.8-17.5C94.9,83.4,86.7,78.5,80.6,75z
				"/>
			<rect id="XMLID_4_" x="71.8" y="94.4" class="st14" width="7.8" height="26.3"/>
		</g>
	</g>
</g>
<g id="Vonalak">
</g>
</svg>
