<?xml version="1.0" encoding="UTF-8" standalone="no"?>
<svg
   xmlns:dc="http://purl.org/dc/elements/1.1/"
   xmlns:cc="http://creativecommons.org/ns#"
   xmlns:rdf="http://www.w3.org/1999/02/22-rdf-syntax-ns#"
   xmlns:svg="http://www.w3.org/2000/svg"
   xmlns="http://www.w3.org/2000/svg"
   id="svg1108"
   version="1.1"
   viewBox="0 0 185.20833 304.27084"
   height="1150"
   width="700">
  <defs
     id="defs1102" />
  <metadata
     id="metadata1105">
    <rdf:RDF>
      <cc:Work
         rdf:about="">
        <dc:format>image/svg+xml</dc:format>
        <dc:type
           rdf:resource="http://purl.org/dc/dcmitype/StillImage" />
        <dc:title></dc:title>
      </cc:Work>
    </rdf:RDF>
  </metadata>
  <g
     transform="translate(0,7.270863)"
     id="layer1">
    <rect
       y="-7.1497579"
       x="0.12109437"
       height="304.02866"
       width="184.96614"
       id="rect1739"
       style="opacity:1;fill:#ffffff;fill-opacity:1;fill-rule:nonzero;stroke:none;stroke-width:0.24218874;stroke-linejoin:round;stroke-miterlimit:4;stroke-dasharray:none;stroke-opacity:1;paint-order:markers fill stroke" />
    <path
       d="m 92.604589,179.99997 c -19.816626,0 -35.885989,16.06634 -35.885989,35.88612 0,15.85533 10.282464,29.30693 24.541111,34.05213 1.793491,0.33228 2.451943,-0.77823 2.451943,-1.72617 0,-0.85575 -0.03304,-3.68259 -0.04893,-6.68124 -9.983503,2.17068 -12.090153,-4.23426 -12.090153,-4.23426 -1.632425,-4.14796 -3.984511,-5.25086 -3.984511,-5.25086 -3.255944,-2.22731 0.245435,-2.18156 0.245435,-2.18156 3.603587,0.2527 5.501052,3.69886 5.501052,3.69886 3.200684,5.48544 8.395157,3.89935 10.442853,2.98245 0.322128,-2.31934 1.252198,-3.90292 2.278498,-4.79849 -7.970838,-0.90756 -16.349886,-3.98456 -16.349886,-17.73519 0,-3.91793 1.401857,-7.11912 3.697474,-9.63228 -0.372596,-0.90444 -1.600926,-4.55399 0.347644,-9.49692 0,0 3.013478,-0.96447 9.871272,3.6786 2.862513,-0.79536 5.9325,-1.19391 8.982083,-1.20763 3.049963,0.008 6.122086,0.41227 8.990135,1.20763 6.84949,-4.64307 9.85874,-3.6786 9.85874,-3.6786 1.9532,4.94293 0.72431,8.59248 0.35178,9.49692 2.30106,2.51316 3.69341,5.71435 3.69341,9.63228 0,13.78315 -8.39521,16.8181 -16.386169,17.70665 1.287129,1.11366 2.434129,3.29736 2.434129,6.64546 0,4.80157 -0.0422,8.66613 -0.0422,9.84818 0,0.95509 0.64596,2.074 2.46522,1.72143 14.25072,-4.75035 24.5202,-18.19732 24.5202,-34.04739 -1e-5,-19.81978 -16.06703,-35.88612 -35.885645,-35.88612"
       style="fill:#1b1817;fill-opacity:1;fill-rule:evenodd;stroke:none;stroke-width:0.05942603"
       id="path831" />
    <g
       id="g1676"
       transform="matrix(0.35277777,0,0,-0.35277777,0.07559738,162.95077)">
      <g
         id="g1678"
         transform="matrix(0.1,0,0,0.1,-25.714286,-366.42858)">
        <path
           d="m 1772.81,4390.13 h -302.67 c -7.81,0 -14.14,-6.34 -14.14,-14.16 V 4228 c 0,-7.81 6.33,-14.17 14.14,-14.17 h 118.07 v -183.85 c 0,0 -26.51,-9.04 -99.81,-9.04 -86.47,0 -207.27,31.6 -207.27,297.24 0,265.68 125.79,300.64 243.88,300.64 102.23,0 146.26,-17.99 174.29,-26.66 8.81,-2.7 16.95,6.06 16.95,13.88 l 33.76,142.98 c 0,3.65 -1.24,8.06 -5.4,11.05 -11.38,8.11 -80.81,46.96 -256.21,46.96 -202.05,0 -409.32,-85.96 -409.32,-499.22 0,-413.26 237.3,-474.84 437.27,-474.84 165.57,0 266.01,70.75 266.01,70.75 4.14,2.29 4.59,8.07 4.59,10.73 v 461.52 c 0,7.82 -6.33,14.16 -14.14,14.16"
           style="fill:#161312;fill-opacity:1;fill-rule:nonzero;stroke:none"
           id="path1696" />
        <path
           d="m 3332.65,4757.52 c 0,7.87 -6.24,14.23 -14.06,14.23 h -170.42 c -7.78,0 -14.11,-6.36 -14.11,-14.23 0,-0.04 0.05,-329.35 0.05,-329.35 h -265.65 v 329.35 c 0,7.87 -6.26,14.23 -14.06,14.23 h -170.41 c -7.75,0 -14.08,-6.36 -14.08,-14.23 v -891.78 c 0,-7.87 6.33,-14.27 14.08,-14.27 h 170.41 c 7.8,0 14.06,6.4 14.06,14.27 v 381.44 h 265.65 c 0,0 -0.47,-381.41 -0.47,-381.44 0,-7.87 6.32,-14.27 14.12,-14.27 h 170.82 c 7.81,0 14.05,6.4 14.07,14.27 v 891.78"
           style="fill:#161312;fill-opacity:1;fill-rule:nonzero;stroke:none"
           id="path1698" />
        <path
           d="m 2094.4,4640.5 c 0,61.36 -49.19,110.95 -109.89,110.95 -60.64,0 -109.88,-49.59 -109.88,-110.95 0,-61.31 49.24,-111.03 109.88,-111.03 60.7,0 109.89,49.72 109.89,111.03"
           style="fill:#161312;fill-opacity:1;fill-rule:nonzero;stroke:none"
           id="path1700" />
        <path
           d="m 2082.22,4053.85 c 0,22.86 0,411.65 0,411.65 0,7.82 -6.31,14.21 -14.1,14.21 h -169.89 c -7.79,0 -14.76,-8.04 -14.76,-15.85 0,0 0,-495.35 0,-589.77 0,-17.33 10.8,-22.49 24.77,-22.49 0,0 72.52,0 153.06,0 16.8,0 20.92,8.25 20.92,22.77 0,31.61 0,155.45 0,179.48"
           style="fill:#161312;fill-opacity:1;fill-rule:nonzero;stroke:none"
           id="path1702" />
        <path
           d="m 3980.32,4478.37 h -169.11 c -7.75,0 -14.07,-6.4 -14.07,-14.26 v -437.27 c 0,0 -42.97,-31.43 -103.95,-31.43 -60.97,0 -77.15,27.67 -77.15,87.38 0,59.78 0,381.32 0,381.32 0,7.86 -6.3,14.26 -14.07,14.26 h -171.64 c -7.74,0 -14.09,-6.4 -14.09,-14.26 0,0 0,-232.86 0,-410.2 0,-177.35 98.84,-220.73 234.81,-220.73 111.56,0 201.5,61.62 201.5,61.62 0,0 4.28,-32.48 6.22,-36.33 1.93,-3.84 6.98,-7.72 12.44,-7.72 l 109.19,0.49 c 7.74,0 14.09,6.4 14.09,14.23 l -0.06,598.64 c 0,7.86 -6.31,14.26 -14.11,14.26"
           style="fill:#161312;fill-opacity:1;fill-rule:nonzero;stroke:none"
           id="path1704" />
        <path
           d="m 4375.84,3995.95 c -58.66,1.78 -98.45,28.4 -98.45,28.4 v 282.41 c 0,0 39.25,24.06 87.41,28.36 60.9,5.45 119.58,-12.94 119.58,-158.22 0,-153.19 -26.48,-183.43 -108.54,-180.95 z m 66.7,502.45 c -96.05,0 -161.38,-42.86 -161.38,-42.86 v 301.98 c 0,7.87 -6.3,14.23 -14.06,14.23 h -170.91 c -7.77,0 -14.08,-6.36 -14.08,-14.23 v -891.78 c 0,-7.87 6.31,-14.27 14.1,-14.27 0.02,0 118.54,0 118.58,0 5.34,0 9.38,2.75 12.37,7.57 2.95,4.8 7.2,41.12 7.2,41.12 0,0 69.88,-66.22 202.17,-66.22 155.32,0 244.39,78.77 244.39,353.65 0,274.89 -142.26,310.81 -238.38,310.81"
           style="fill:#161312;fill-opacity:1;fill-rule:nonzero;stroke:none"
           id="path1706" />
        <path
           d="m 2572.02,4479.79 h -127.84 c 0,0 -0.19,168.85 -0.19,168.88 0,6.4 -3.3,9.59 -10.69,9.59 h -174.2 c -6.78,0 -10.41,-2.98 -10.41,-9.49 v -174.52 c 0,0 -87.3,-21.07 -93.21,-22.78 -5.87,-1.7 -10.2,-7.12 -10.2,-13.59 v -109.67 c 0,-7.89 6.3,-14.25 14.09,-14.25 h 89.32 c 0,0 0,-114.71 0,-263.84 0,-195.97 137.46,-215.22 230.21,-215.22 42.39,0 93.09,13.61 101.46,16.7 5.06,1.86 8,7.11 8,12.79 l 0.15,120.65 c 0,7.86 -6.65,14.23 -14.13,14.23 -7.46,0 -26.51,-3.03 -46.13,-3.03 -62.8,0 -84.07,29.19 -84.07,66.99 0,37.76 -0.01,250.73 -0.01,250.73 h 127.85 c 7.79,0 14.1,6.36 14.1,14.25 v 137.37 c 0,7.87 -6.31,14.21 -14.1,14.21"
           style="fill:#161312;fill-opacity:1;fill-rule:nonzero;stroke:none"
           id="path1708" />
      </g>
    </g>
    <text
       id="text1729"
       y="51.08474"
       x="28.783566"
       style="font-style:normal;font-weight:normal;font-size:10.58333302px;line-height:125%;font-family:sans-serif;letter-spacing:0px;word-spacing:0px;fill:#000000;fill-opacity:1;stroke:none;stroke-width:0.26458332px;stroke-linecap:butt;stroke-linejoin:miter;stroke-opacity:1"
       xml:space="preserve"><tspan
         id="tspan1731"
         style="font-style:normal;font-variant:normal;font-weight:bold;font-stretch:normal;font-size:29.98611069px;font-family:Arial;-inkscape-font-specification:'Arial Bold';letter-spacing:0.26458332px;fill:#cd201f;fill-opacity:1;stroke-width:0.26458332px"
         y="51.08474"
         x="28.783566">NewPipe</tspan></text>
    <text
       id="text1737"
       y="95.916664"
       x="79.304375"
       style="font-style:normal;font-weight:normal;font-size:10.58333302px;line-height:125%;font-family:sans-serif;letter-spacing:0px;word-spacing:0px;fill:#000000;fill-opacity:1;stroke:none;stroke-width:0.26458332px;stroke-linecap:butt;stroke-linejoin:miter;stroke-opacity:1"
       xml:space="preserve"><tspan
         style="font-style:normal;font-variant:normal;font-weight:normal;font-stretch:normal;font-size:24.69444466px;font-family:Arial;-inkscape-font-specification:Arial;stroke-width:0.26458332px"
         y="95.916664"
         x="79.304375"
         id="tspan1735">on</tspan></text>
  </g>
</svg>
